<?xml version="1.0" encoding="UTF-8" standalone="no"?>
<!DOCTYPE svg PUBLIC "-//W3C//DTD SVG 1.1//EN"
 "http://www.w3.org/Graphics/SVG/1.1/DTD/svg11.dtd">
<!-- Generated by graphviz version 2.40.1 (20161225.0304)
 -->
<!-- Title: %0 Pages: 1 -->
<svg width="837pt" height="332pt"
 viewBox="0.00 0.00 836.60 332.00" xmlns="http://www.w3.org/2000/svg" xmlns:xlink="http://www.w3.org/1999/xlink">
<g id="graph0" class="graph" transform="scale(1 1) rotate(0) translate(4 328)">
<title>%0</title>
<polygon fill="#ffffff" stroke="transparent" points="-4,4 -4,-328 832.6038,-328 832.6038,4 -4,4"/>
<!-- c:\Users\Mig\Desktop\Layer4&#45;Firewall\hardware\sim\blueprint\my_types_pkg.vhd -->
<g id="node1" class="node">
<title>c:\Users\Mig\Desktop\Layer4&#45;Firewall\hardware\sim\blueprint\my_types_pkg.vhd</title>
<polygon fill="#d3d3d3" stroke="#069302" points="350.9092,-36 218.5033,-36 218.5033,-32 214.5033,-32 214.5033,-28 218.5033,-28 218.5033,-8 214.5033,-8 214.5033,-4 218.5033,-4 218.5033,0 350.9092,0 350.9092,-36"/>
<polyline fill="none" stroke="#069302" points="218.5033,-32 222.5033,-32 222.5033,-28 218.5033,-28 "/>
<polyline fill="none" stroke="#069302" points="218.5033,-8 222.5033,-8 222.5033,-4 218.5033,-4 "/>
<text text-anchor="middle" x="284.7062" y="-13.8" font-family="Helvetica,sans-Serif" font-size="14.00" fill="#000000">my_types_pkg.vhd</text>
</g>
<!-- c:\Users\Mig\Desktop\Layer4&#45;Firewall\hardware\sim\blueprint\trie_and_SRAM\codeword_concatinator.vhd -->
<g id="node2" class="node">
<title>c:\Users\Mig\Desktop\Layer4&#45;Firewall\hardware\sim\blueprint\trie_and_SRAM\codeword_concatinator.vhd</title>
<polygon fill="#d3d3d3" stroke="#069302" points="317.3689,-108 130.0436,-108 130.0436,-104 126.0436,-104 126.0436,-100 130.0436,-100 130.0436,-80 126.0436,-80 126.0436,-76 130.0436,-76 130.0436,-72 317.3689,-72 317.3689,-108"/>
<polyline fill="none" stroke="#069302" points="130.0436,-104 134.0436,-104 134.0436,-100 130.0436,-100 "/>
<polyline fill="none" stroke="#069302" points="130.0436,-80 134.0436,-80 134.0436,-76 130.0436,-76 "/>
<text text-anchor="middle" x="223.7062" y="-85.8" font-family="Helvetica,sans-Serif" font-size="14.00" fill="#000000">codeword_concatinator.vhd</text>
</g>
<!-- c:\Users\Mig\Desktop\Layer4&#45;Firewall\hardware\sim\blueprint\trie_and_SRAM\codeword_concatinator.vhd&#45;&gt;c:\Users\Mig\Desktop\Layer4&#45;Firewall\hardware\sim\blueprint\my_types_pkg.vhd -->
<g id="edge1" class="edge">
<title>c:\Users\Mig\Desktop\Layer4&#45;Firewall\hardware\sim\blueprint\trie_and_SRAM\codeword_concatinator.vhd&#45;&gt;c:\Users\Mig\Desktop\Layer4&#45;Firewall\hardware\sim\blueprint\my_types_pkg.vhd</title>
<path fill="none" stroke="#000000" d="M239.0991,-71.8314C246.1966,-63.454 254.7543,-53.3531 262.5303,-44.1749"/>
<polygon fill="#000000" stroke="#000000" points="265.3124,-46.3056 269.1061,-36.4133 259.9715,-41.7807 265.3124,-46.3056"/>
</g>
<!-- c:\Users\Mig\Desktop\Layer4&#45;Firewall\hardware\sim\blueprint\trie_and_SRAM\SRAM.vhd -->
<g id="node3" class="node">
<title>c:\Users\Mig\Desktop\Layer4&#45;Firewall\hardware\sim\blueprint\trie_and_SRAM\SRAM.vhd</title>
<polygon fill="#d3d3d3" stroke="#069302" points="717.1025,-36 634.31,-36 634.31,-32 630.31,-32 630.31,-28 634.31,-28 634.31,-8 630.31,-8 630.31,-4 634.31,-4 634.31,0 717.1025,0 717.1025,-36"/>
<polyline fill="none" stroke="#069302" points="634.31,-32 638.31,-32 638.31,-28 634.31,-28 "/>
<polyline fill="none" stroke="#069302" points="634.31,-8 638.31,-8 638.31,-4 634.31,-4 "/>
<text text-anchor="middle" x="675.7062" y="-13.8" font-family="Helvetica,sans-Serif" font-size="14.00" fill="#000000">SRAM.vhd</text>
</g>
<!-- c:\Users\Mig\Desktop\Layer4&#45;Firewall\hardware\sim\blueprint\trie_and_SRAM\tree_and_sram.vhd -->
<g id="node4" class="node">
<title>c:\Users\Mig\Desktop\Layer4&#45;Firewall\hardware\sim\blueprint\trie_and_SRAM\tree_and_sram.vhd</title>
<polygon fill="#d3d3d3" stroke="#069302" points="796.7959,-108 660.6166,-108 660.6166,-104 656.6166,-104 656.6166,-100 660.6166,-100 660.6166,-80 656.6166,-80 656.6166,-76 660.6166,-76 660.6166,-72 796.7959,-72 796.7959,-108"/>
<polyline fill="none" stroke="#069302" points="660.6166,-104 664.6166,-104 664.6166,-100 660.6166,-100 "/>
<polyline fill="none" stroke="#069302" points="660.6166,-80 664.6166,-80 664.6166,-76 660.6166,-76 "/>
<text text-anchor="middle" x="728.7062" y="-85.8" font-family="Helvetica,sans-Serif" font-size="14.00" fill="#000000">tree_and_sram.vhd</text>
</g>
<!-- c:\Users\Mig\Desktop\Layer4&#45;Firewall\hardware\sim\blueprint\trie_and_SRAM\tree_and_sram.vhd&#45;&gt;c:\Users\Mig\Desktop\Layer4&#45;Firewall\hardware\sim\blueprint\my_types_pkg.vhd -->
<g id="edge2" class="edge">
<title>c:\Users\Mig\Desktop\Layer4&#45;Firewall\hardware\sim\blueprint\trie_and_SRAM\tree_and_sram.vhd&#45;&gt;c:\Users\Mig\Desktop\Layer4&#45;Firewall\hardware\sim\blueprint\my_types_pkg.vhd</title>
<path fill="none" stroke="#000000" d="M660.3356,-73.7047C657.4242,-73.1097 654.5385,-72.5384 651.7062,-72 551.8522,-53.0169 435.6291,-36.9158 361.1733,-27.3583"/>
<polygon fill="#000000" stroke="#000000" points="361.3132,-23.8478 350.9505,-26.0535 360.4269,-30.7915 361.3132,-23.8478"/>
</g>
<!-- c:\Users\Mig\Desktop\Layer4&#45;Firewall\hardware\sim\blueprint\trie_and_SRAM\tree_and_sram.vhd&#45;&gt;c:\Users\Mig\Desktop\Layer4&#45;Firewall\hardware\sim\blueprint\trie_and_SRAM\SRAM.vhd -->
<g id="edge3" class="edge">
<title>c:\Users\Mig\Desktop\Layer4&#45;Firewall\hardware\sim\blueprint\trie_and_SRAM\tree_and_sram.vhd&#45;&gt;c:\Users\Mig\Desktop\Layer4&#45;Firewall\hardware\sim\blueprint\trie_and_SRAM\SRAM.vhd</title>
<path fill="none" stroke="#000000" d="M715.3321,-71.8314C709.29,-63.6232 702.03,-53.7606 695.3842,-44.7323"/>
<polygon fill="#000000" stroke="#000000" points="698.0074,-42.3918 689.2605,-36.4133 692.37,-46.5415 698.0074,-42.3918"/>
</g>
<!-- c:\Users\Mig\Desktop\Layer4&#45;Firewall\hardware\sim\blueprint\trie_and_SRAM\trie_tree.vhd -->
<g id="node6" class="node">
<title>c:\Users\Mig\Desktop\Layer4&#45;Firewall\hardware\sim\blueprint\trie_and_SRAM\trie_tree.vhd</title>
<polygon fill="#d3d3d3" stroke="#069302" points="828.5017,-36 734.9108,-36 734.9108,-32 730.9108,-32 730.9108,-28 734.9108,-28 734.9108,-8 730.9108,-8 730.9108,-4 734.9108,-4 734.9108,0 828.5017,0 828.5017,-36"/>
<polyline fill="none" stroke="#069302" points="734.9108,-32 738.9108,-32 738.9108,-28 734.9108,-28 "/>
<polyline fill="none" stroke="#069302" points="734.9108,-8 738.9108,-8 738.9108,-4 734.9108,-4 "/>
<text text-anchor="middle" x="781.7062" y="-13.8" font-family="Helvetica,sans-Serif" font-size="14.00" fill="#000000">trie_tree.vhd</text>
</g>
<!-- c:\Users\Mig\Desktop\Layer4&#45;Firewall\hardware\sim\blueprint\trie_and_SRAM\tree_and_sram.vhd&#45;&gt;c:\Users\Mig\Desktop\Layer4&#45;Firewall\hardware\sim\blueprint\trie_and_SRAM\trie_tree.vhd -->
<g id="edge4" class="edge">
<title>c:\Users\Mig\Desktop\Layer4&#45;Firewall\hardware\sim\blueprint\trie_and_SRAM\tree_and_sram.vhd&#45;&gt;c:\Users\Mig\Desktop\Layer4&#45;Firewall\hardware\sim\blueprint\trie_and_SRAM\trie_tree.vhd</title>
<path fill="none" stroke="#000000" d="M742.0804,-71.8314C748.1225,-63.6232 755.3825,-53.7606 762.0283,-44.7323"/>
<polygon fill="#000000" stroke="#000000" points="765.0425,-46.5415 768.152,-36.4133 759.4051,-42.3918 765.0425,-46.5415"/>
</g>
<!-- c:\Users\Mig\Desktop\Layer4&#45;Firewall\hardware\sim\blueprint\trie_and_SRAM\tree_collection.vhd -->
<g id="node5" class="node">
<title>c:\Users\Mig\Desktop\Layer4&#45;Firewall\hardware\sim\blueprint\trie_and_SRAM\tree_collection.vhd</title>
<polygon fill="#d3d3d3" stroke="#069302" points="167.9022,-180 35.5103,-180 35.5103,-176 31.5103,-176 31.5103,-172 35.5103,-172 35.5103,-152 31.5103,-152 31.5103,-148 35.5103,-148 35.5103,-144 167.9022,-144 167.9022,-180"/>
<polyline fill="none" stroke="#069302" points="35.5103,-176 39.5103,-176 39.5103,-172 35.5103,-172 "/>
<polyline fill="none" stroke="#069302" points="35.5103,-152 39.5103,-152 39.5103,-148 35.5103,-148 "/>
<text text-anchor="middle" x="101.7062" y="-157.8" font-family="Helvetica,sans-Serif" font-size="14.00" fill="#000000">tree_collection.vhd</text>
</g>
<!-- c:\Users\Mig\Desktop\Layer4&#45;Firewall\hardware\sim\blueprint\trie_and_SRAM\tree_collection.vhd&#45;&gt;c:\Users\Mig\Desktop\Layer4&#45;Firewall\hardware\sim\blueprint\my_types_pkg.vhd -->
<g id="edge5" class="edge">
<title>c:\Users\Mig\Desktop\Layer4&#45;Firewall\hardware\sim\blueprint\trie_and_SRAM\tree_collection.vhd&#45;&gt;c:\Users\Mig\Desktop\Layer4&#45;Firewall\hardware\sim\blueprint\my_types_pkg.vhd</title>
<path fill="none" stroke="#000000" d="M100.5424,-143.7724C100.282,-123.7272 103.0205,-91.7472 120.7062,-72 133.098,-58.1639 171.9239,-45.0692 208.6873,-35.2405"/>
<polygon fill="#000000" stroke="#000000" points="209.6818,-38.5982 218.4733,-32.6856 207.9135,-31.8253 209.6818,-38.5982"/>
</g>
<!-- c:\Users\Mig\Desktop\Layer4&#45;Firewall\hardware\sim\blueprint\trie_and_SRAM\tree_collection.vhd&#45;&gt;c:\Users\Mig\Desktop\Layer4&#45;Firewall\hardware\sim\blueprint\trie_and_SRAM\codeword_concatinator.vhd -->
<g id="edge6" class="edge">
<title>c:\Users\Mig\Desktop\Layer4&#45;Firewall\hardware\sim\blueprint\trie_and_SRAM\tree_collection.vhd&#45;&gt;c:\Users\Mig\Desktop\Layer4&#45;Firewall\hardware\sim\blueprint\trie_and_SRAM\codeword_concatinator.vhd</title>
<path fill="none" stroke="#000000" d="M132.492,-143.8314C148.0965,-134.6221 167.2302,-123.3301 183.9366,-113.4706"/>
<polygon fill="#000000" stroke="#000000" points="186.0972,-116.2596 192.9303,-108.1628 182.5394,-110.2312 186.0972,-116.2596"/>
</g>
<!-- c:\Users\Mig\Desktop\Layer4&#45;Firewall\hardware\sim\blueprint\system_blueprint.vhd -->
<g id="node7" class="node">
<title>c:\Users\Mig\Desktop\Layer4&#45;Firewall\hardware\sim\blueprint\system_blueprint.vhd</title>
<polygon fill="#d3d3d3" stroke="#069302" points="374.9561,-252 226.4564,-252 226.4564,-248 222.4564,-248 222.4564,-244 226.4564,-244 226.4564,-224 222.4564,-224 222.4564,-220 226.4564,-220 226.4564,-216 374.9561,-216 374.9561,-252"/>
<polyline fill="none" stroke="#069302" points="226.4564,-248 230.4564,-248 230.4564,-244 226.4564,-244 "/>
<polyline fill="none" stroke="#069302" points="226.4564,-224 230.4564,-224 230.4564,-220 226.4564,-220 "/>
<text text-anchor="middle" x="300.7062" y="-229.8" font-family="Helvetica,sans-Serif" font-size="14.00" fill="#000000">system_blueprint.vhd</text>
</g>
<!-- c:\Users\Mig\Desktop\Layer4&#45;Firewall\hardware\sim\blueprint\system_blueprint.vhd&#45;&gt;c:\Users\Mig\Desktop\Layer4&#45;Firewall\hardware\sim\blueprint\my_types_pkg.vhd -->
<g id="edge7" class="edge">
<title>c:\Users\Mig\Desktop\Layer4&#45;Firewall\hardware\sim\blueprint\system_blueprint.vhd&#45;&gt;c:\Users\Mig\Desktop\Layer4&#45;Firewall\hardware\sim\blueprint\my_types_pkg.vhd</title>
<path fill="none" stroke="#000000" d="M226.4257,-229.7205C154.1103,-223.8185 51.5702,-210.2424 26.7062,-180 -32.5793,-107.8901 112.5303,-58.2059 208.3698,-34.3023"/>
<polygon fill="#000000" stroke="#000000" points="209.4665,-37.6373 218.3485,-31.8615 207.8032,-30.8378 209.4665,-37.6373"/>
</g>
<!-- c:\Users\Mig\Desktop\Layer4&#45;Firewall\hardware\sim\blueprint\system_blueprint.vhd&#45;&gt;c:\Users\Mig\Desktop\Layer4&#45;Firewall\hardware\sim\blueprint\trie_and_SRAM\tree_collection.vhd -->
<g id="edge11" class="edge">
<title>c:\Users\Mig\Desktop\Layer4&#45;Firewall\hardware\sim\blueprint\system_blueprint.vhd&#45;&gt;c:\Users\Mig\Desktop\Layer4&#45;Firewall\hardware\sim\blueprint\trie_and_SRAM\tree_collection.vhd</title>
<path fill="none" stroke="#000000" d="M250.747,-215.9243C223.5425,-206.0815 189.7046,-193.8386 161.15,-183.5073"/>
<polygon fill="#000000" stroke="#000000" points="162.2803,-180.1943 151.686,-180.0831 159.8987,-186.7767 162.2803,-180.1943"/>
</g>
<!-- c:\Users\Mig\Desktop\Layer4&#45;Firewall\hardware\sim\blueprint\accept_deny\accept_deny.vhd -->
<g id="node9" class="node">
<title>c:\Users\Mig\Desktop\Layer4&#45;Firewall\hardware\sim\blueprint\accept_deny\accept_deny.vhd</title>
<polygon fill="#d3d3d3" stroke="#069302" points="307.531,-180 185.8815,-180 185.8815,-176 181.8815,-176 181.8815,-172 185.8815,-172 185.8815,-152 181.8815,-152 181.8815,-148 185.8815,-148 185.8815,-144 307.531,-144 307.531,-180"/>
<polyline fill="none" stroke="#069302" points="185.8815,-176 189.8815,-176 189.8815,-172 185.8815,-172 "/>
<polyline fill="none" stroke="#069302" points="185.8815,-152 189.8815,-152 189.8815,-148 185.8815,-148 "/>
<text text-anchor="middle" x="246.7062" y="-157.8" font-family="Helvetica,sans-Serif" font-size="14.00" fill="#000000">accept_deny.vhd</text>
</g>
<!-- c:\Users\Mig\Desktop\Layer4&#45;Firewall\hardware\sim\blueprint\system_blueprint.vhd&#45;&gt;c:\Users\Mig\Desktop\Layer4&#45;Firewall\hardware\sim\blueprint\accept_deny\accept_deny.vhd -->
<g id="edge8" class="edge">
<title>c:\Users\Mig\Desktop\Layer4&#45;Firewall\hardware\sim\blueprint\system_blueprint.vhd&#45;&gt;c:\Users\Mig\Desktop\Layer4&#45;Firewall\hardware\sim\blueprint\accept_deny\accept_deny.vhd</title>
<path fill="none" stroke="#000000" d="M287.0798,-215.8314C280.8602,-207.5386 273.374,-197.557 266.5463,-188.4533"/>
<polygon fill="#000000" stroke="#000000" points="269.3162,-186.3133 260.5162,-180.4133 263.7162,-190.5133 269.3162,-186.3133"/>
</g>
<!-- c:\Users\Mig\Desktop\Layer4&#45;Firewall\hardware\sim\blueprint\accept_deny\fifo.vhd -->
<g id="node10" class="node">
<title>c:\Users\Mig\Desktop\Layer4&#45;Firewall\hardware\sim\blueprint\accept_deny\fifo.vhd</title>
<polygon fill="#d3d3d3" stroke="#069302" points="386.3326,-180 325.0799,-180 325.0799,-176 321.0799,-176 321.0799,-172 325.0799,-172 325.0799,-152 321.0799,-152 321.0799,-148 325.0799,-148 325.0799,-144 386.3326,-144 386.3326,-180"/>
<polyline fill="none" stroke="#069302" points="325.0799,-176 329.0799,-176 329.0799,-172 325.0799,-172 "/>
<polyline fill="none" stroke="#069302" points="325.0799,-152 329.0799,-152 329.0799,-148 325.0799,-148 "/>
<text text-anchor="middle" x="355.7062" y="-157.8" font-family="Helvetica,sans-Serif" font-size="14.00" fill="#000000">fifo.vhd</text>
</g>
<!-- c:\Users\Mig\Desktop\Layer4&#45;Firewall\hardware\sim\blueprint\system_blueprint.vhd&#45;&gt;c:\Users\Mig\Desktop\Layer4&#45;Firewall\hardware\sim\blueprint\accept_deny\fifo.vhd -->
<g id="edge10" class="edge">
<title>c:\Users\Mig\Desktop\Layer4&#45;Firewall\hardware\sim\blueprint\system_blueprint.vhd&#45;&gt;c:\Users\Mig\Desktop\Layer4&#45;Firewall\hardware\sim\blueprint\accept_deny\fifo.vhd</title>
<path fill="none" stroke="#000000" d="M314.5851,-215.8314C320.9198,-207.5386 328.5446,-197.557 335.4988,-188.4533"/>
<polygon fill="#000000" stroke="#000000" points="338.3515,-190.4847 341.6406,-180.4133 332.7888,-186.2353 338.3515,-190.4847"/>
</g>
<!-- c:\Users\Mig\Desktop\Layer4&#45;Firewall\hardware\sim\blueprint\collect_header\Collect_header.vhd -->
<g id="node11" class="node">
<title>c:\Users\Mig\Desktop\Layer4&#45;Firewall\hardware\sim\blueprint\collect_header\Collect_header.vhd</title>
<polygon fill="#d3d3d3" stroke="#069302" points="540.7945,-180 404.618,-180 404.618,-176 400.618,-176 400.618,-172 404.618,-172 404.618,-152 400.618,-152 400.618,-148 404.618,-148 404.618,-144 540.7945,-144 540.7945,-180"/>
<polyline fill="none" stroke="#069302" points="404.618,-176 408.618,-176 408.618,-172 404.618,-172 "/>
<polyline fill="none" stroke="#069302" points="404.618,-152 408.618,-152 408.618,-148 404.618,-148 "/>
<text text-anchor="middle" x="472.7062" y="-157.8" font-family="Helvetica,sans-Serif" font-size="14.00" fill="#000000">Collect_header.vhd</text>
</g>
<!-- c:\Users\Mig\Desktop\Layer4&#45;Firewall\hardware\sim\blueprint\system_blueprint.vhd&#45;&gt;c:\Users\Mig\Desktop\Layer4&#45;Firewall\hardware\sim\blueprint\collect_header\Collect_header.vhd -->
<g id="edge9" class="edge">
<title>c:\Users\Mig\Desktop\Layer4&#45;Firewall\hardware\sim\blueprint\system_blueprint.vhd&#45;&gt;c:\Users\Mig\Desktop\Layer4&#45;Firewall\hardware\sim\blueprint\collect_header\Collect_header.vhd</title>
<path fill="none" stroke="#000000" d="M344.1091,-215.8314C367.2153,-206.159 395.8101,-194.1891 420.164,-183.9944"/>
<polygon fill="#000000" stroke="#000000" points="421.7426,-187.128 429.6155,-180.038 419.0396,-180.6709 421.7426,-187.128"/>
</g>
<!-- c:\Users\Mig\Desktop\Layer4&#45;Firewall\hardware\sim\blueprint\cuckoo_hash\cuckoo_hash.vhd -->
<g id="node12" class="node">
<title>c:\Users\Mig\Desktop\Layer4&#45;Firewall\hardware\sim\blueprint\cuckoo_hash\cuckoo_hash.vhd</title>
<polygon fill="#d3d3d3" stroke="#069302" points="684.1403,-180 559.2722,-180 559.2722,-176 555.2722,-176 555.2722,-172 559.2722,-172 559.2722,-152 555.2722,-152 555.2722,-148 559.2722,-148 559.2722,-144 684.1403,-144 684.1403,-180"/>
<polyline fill="none" stroke="#069302" points="559.2722,-176 563.2722,-176 563.2722,-172 559.2722,-172 "/>
<polyline fill="none" stroke="#069302" points="559.2722,-152 563.2722,-152 563.2722,-148 559.2722,-148 "/>
<text text-anchor="middle" x="621.7062" y="-157.8" font-family="Helvetica,sans-Serif" font-size="14.00" fill="#000000">cuckoo_hash.vhd</text>
</g>
<!-- c:\Users\Mig\Desktop\Layer4&#45;Firewall\hardware\sim\blueprint\system_blueprint.vhd&#45;&gt;c:\Users\Mig\Desktop\Layer4&#45;Firewall\hardware\sim\blueprint\cuckoo_hash\cuckoo_hash.vhd -->
<g id="edge13" class="edge">
<title>c:\Users\Mig\Desktop\Layer4&#45;Firewall\hardware\sim\blueprint\system_blueprint.vhd&#45;&gt;c:\Users\Mig\Desktop\Layer4&#45;Firewall\hardware\sim\blueprint\cuckoo_hash\cuckoo_hash.vhd</title>
<path fill="none" stroke="#000000" d="M374.9321,-218.5402C422.0885,-208.5695 484.6576,-195.0675 548.9867,-180.1343"/>
<polygon fill="#000000" stroke="#000000" points="549.9607,-183.5012 558.9058,-177.8235 548.3724,-176.6838 549.9607,-183.5012"/>
</g>
<!-- c:\Users\Mig\Desktop\Layer4&#45;Firewall\hardware\sim\blueprint\rule_engine\rule_engine.vhd -->
<g id="node14" class="node">
<title>c:\Users\Mig\Desktop\Layer4&#45;Firewall\hardware\sim\blueprint\rule_engine\rule_engine.vhd</title>
<polygon fill="#d3d3d3" stroke="#069302" points="642.2974,-108 527.1151,-108 527.1151,-104 523.1151,-104 523.1151,-100 527.1151,-100 527.1151,-80 523.1151,-80 523.1151,-76 527.1151,-76 527.1151,-72 642.2974,-72 642.2974,-108"/>
<polyline fill="none" stroke="#069302" points="527.1151,-104 531.1151,-104 531.1151,-100 527.1151,-100 "/>
<polyline fill="none" stroke="#069302" points="527.1151,-80 531.1151,-80 531.1151,-76 527.1151,-76 "/>
<text text-anchor="middle" x="584.7062" y="-85.8" font-family="Helvetica,sans-Serif" font-size="14.00" fill="#000000">rule_engine.vhd</text>
</g>
<!-- c:\Users\Mig\Desktop\Layer4&#45;Firewall\hardware\sim\blueprint\system_blueprint.vhd&#45;&gt;c:\Users\Mig\Desktop\Layer4&#45;Firewall\hardware\sim\blueprint\rule_engine\rule_engine.vhd -->
<g id="edge12" class="edge">
<title>c:\Users\Mig\Desktop\Layer4&#45;Firewall\hardware\sim\blueprint\system_blueprint.vhd&#45;&gt;c:\Users\Mig\Desktop\Layer4&#45;Firewall\hardware\sim\blueprint\rule_engine\rule_engine.vhd</title>
<path fill="none" stroke="#000000" d="M374.8847,-228.9787C482.7027,-220.9154 672.1671,-203.5624 692.7062,-180 703.2197,-167.939 701.1179,-157.6104 692.7062,-144 683.2631,-128.7206 668.0425,-117.62 651.9698,-109.6124"/>
<polygon fill="#000000" stroke="#000000" points="652.9941,-106.2319 642.4452,-105.2469 650.0775,-112.5953 652.9941,-106.2319"/>
</g>
<!-- c:\Users\Mig\Desktop\Layer4&#45;Firewall\hardware\sim\blueprint\system_blueprint_tb.vhd -->
<g id="node8" class="node">
<title>c:\Users\Mig\Desktop\Layer4&#45;Firewall\hardware\sim\blueprint\system_blueprint_tb.vhd</title>
<polygon fill="#d3d3d3" stroke="#069302" points="191.4119,-324 24.0006,-324 24.0006,-320 20.0006,-320 20.0006,-316 24.0006,-316 24.0006,-296 20.0006,-296 20.0006,-292 24.0006,-292 24.0006,-288 191.4119,-288 191.4119,-324"/>
<polyline fill="none" stroke="#069302" points="24.0006,-320 28.0006,-320 28.0006,-316 24.0006,-316 "/>
<polyline fill="none" stroke="#069302" points="24.0006,-296 28.0006,-296 28.0006,-292 24.0006,-292 "/>
<text text-anchor="middle" x="107.7062" y="-301.8" font-family="Helvetica,sans-Serif" font-size="14.00" fill="#000000">system_blueprint_tb.vhd</text>
</g>
<!-- c:\Users\Mig\Desktop\Layer4&#45;Firewall\hardware\sim\blueprint\system_blueprint_tb.vhd&#45;&gt;c:\Users\Mig\Desktop\Layer4&#45;Firewall\hardware\sim\blueprint\my_types_pkg.vhd -->
<g id="edge14" class="edge">
<title>c:\Users\Mig\Desktop\Layer4&#45;Firewall\hardware\sim\blueprint\system_blueprint_tb.vhd&#45;&gt;c:\Users\Mig\Desktop\Layer4&#45;Firewall\hardware\sim\blueprint\my_types_pkg.vhd</title>
<path fill="none" stroke="#000000" d="M87.1343,-287.9818C63.1947,-265.5031 24.9956,-224.5614 9.7062,-180 -6.2208,-133.5799 -3.6558,-104.959 32.7062,-72 58.156,-48.9321 143.7233,-34.1103 208.1428,-25.941"/>
<polygon fill="#000000" stroke="#000000" points="208.7928,-29.3874 218.2877,-24.6867 207.9338,-22.4403 208.7928,-29.3874"/>
</g>
<!-- c:\Users\Mig\Desktop\Layer4&#45;Firewall\hardware\sim\blueprint\system_blueprint_tb.vhd&#45;&gt;c:\Users\Mig\Desktop\Layer4&#45;Firewall\hardware\sim\blueprint\system_blueprint.vhd -->
<g id="edge15" class="edge">
<title>c:\Users\Mig\Desktop\Layer4&#45;Firewall\hardware\sim\blueprint\system_blueprint_tb.vhd&#45;&gt;c:\Users\Mig\Desktop\Layer4&#45;Firewall\hardware\sim\blueprint\system_blueprint.vhd</title>
<path fill="none" stroke="#000000" d="M156.4083,-287.8314C182.6798,-278.0306 215.2745,-265.8709 242.8347,-255.5894"/>
<polygon fill="#000000" stroke="#000000" points="244.2085,-258.8126 252.3544,-252.038 241.7618,-252.2541 244.2085,-258.8126"/>
</g>
<!-- c:\Users\Mig\Desktop\Layer4&#45;Firewall\hardware\sim\blueprint\cuckoo_hash\cuckoo_hash.vhd&#45;&gt;c:\Users\Mig\Desktop\Layer4&#45;Firewall\hardware\sim\blueprint\my_types_pkg.vhd -->
<g id="edge16" class="edge">
<title>c:\Users\Mig\Desktop\Layer4&#45;Firewall\hardware\sim\blueprint\cuckoo_hash\cuckoo_hash.vhd&#45;&gt;c:\Users\Mig\Desktop\Layer4&#45;Firewall\hardware\sim\blueprint\my_types_pkg.vhd</title>
<path fill="none" stroke="#000000" d="M558.9238,-146.0971C555.8105,-145.3736 552.725,-144.6706 549.7062,-144 467.9349,-125.8357 437.4746,-149.4881 364.7062,-108 350.41,-99.8492 323.4408,-67.6845 304.7932,-44.1253"/>
<polygon fill="#000000" stroke="#000000" points="307.5051,-41.9117 298.5788,-36.2045 301.9978,-46.2325 307.5051,-41.9117"/>
</g>
<!-- c:\Users\Mig\Desktop\Layer4&#45;Firewall\hardware\sim\blueprint\cuckoo_hash\cuckoo_SRAM.vhd -->
<g id="node13" class="node">
<title>c:\Users\Mig\Desktop\Layer4&#45;Firewall\hardware\sim\blueprint\cuckoo_hash\cuckoo_SRAM.vhd</title>
<polygon fill="#d3d3d3" stroke="#069302" points="509.2329,-108 374.1796,-108 374.1796,-104 370.1796,-104 370.1796,-100 374.1796,-100 374.1796,-80 370.1796,-80 370.1796,-76 374.1796,-76 374.1796,-72 509.2329,-72 509.2329,-108"/>
<polyline fill="none" stroke="#069302" points="374.1796,-104 378.1796,-104 378.1796,-100 374.1796,-100 "/>
<polyline fill="none" stroke="#069302" points="374.1796,-80 378.1796,-80 378.1796,-76 374.1796,-76 "/>
<text text-anchor="middle" x="441.7062" y="-85.8" font-family="Helvetica,sans-Serif" font-size="14.00" fill="#000000">cuckoo_SRAM.vhd</text>
</g>
<!-- c:\Users\Mig\Desktop\Layer4&#45;Firewall\hardware\sim\blueprint\cuckoo_hash\cuckoo_hash.vhd&#45;&gt;c:\Users\Mig\Desktop\Layer4&#45;Firewall\hardware\sim\blueprint\cuckoo_hash\cuckoo_SRAM.vhd -->
<g id="edge17" class="edge">
<title>c:\Users\Mig\Desktop\Layer4&#45;Firewall\hardware\sim\blueprint\cuckoo_hash\cuckoo_hash.vhd&#45;&gt;c:\Users\Mig\Desktop\Layer4&#45;Firewall\hardware\sim\blueprint\cuckoo_hash\cuckoo_SRAM.vhd</title>
<path fill="none" stroke="#000000" d="M576.2846,-143.8314C551.9967,-134.1162 521.914,-122.0831 496.3543,-111.8592"/>
<polygon fill="#000000" stroke="#000000" points="497.3859,-108.5023 486.8012,-108.038 494.7861,-115.0016 497.3859,-108.5023"/>
</g>
<!-- c:\Users\Mig\Desktop\Layer4&#45;Firewall\hardware\sim\blueprint\cuckoo_hash\cuckoo_SRAM.vhd&#45;&gt;c:\Users\Mig\Desktop\Layer4&#45;Firewall\hardware\sim\blueprint\my_types_pkg.vhd -->
<g id="edge18" class="edge">
<title>c:\Users\Mig\Desktop\Layer4&#45;Firewall\hardware\sim\blueprint\cuckoo_hash\cuckoo_SRAM.vhd&#45;&gt;c:\Users\Mig\Desktop\Layer4&#45;Firewall\hardware\sim\blueprint\my_types_pkg.vhd</title>
<path fill="none" stroke="#000000" d="M402.0885,-71.8314C381.184,-62.2446 355.3579,-50.4008 333.2574,-40.2655"/>
<polygon fill="#000000" stroke="#000000" points="334.5878,-37.0252 324.0391,-36.038 331.6698,-43.388 334.5878,-37.0252"/>
</g>
<!-- c:\Users\Mig\Desktop\Layer4&#45;Firewall\hardware\sim\blueprint\rule_engine\rule_engine.vhd&#45;&gt;c:\Users\Mig\Desktop\Layer4&#45;Firewall\hardware\sim\blueprint\my_types_pkg.vhd -->
<g id="edge19" class="edge">
<title>c:\Users\Mig\Desktop\Layer4&#45;Firewall\hardware\sim\blueprint\rule_engine\rule_engine.vhd&#45;&gt;c:\Users\Mig\Desktop\Layer4&#45;Firewall\hardware\sim\blueprint\my_types_pkg.vhd</title>
<path fill="none" stroke="#000000" d="M526.7921,-74.0664C524.0611,-73.3588 521.3553,-72.6666 518.7062,-72 466.159,-58.7768 406.6564,-45.0623 360.8035,-34.7633"/>
<polygon fill="#000000" stroke="#000000" points="361.462,-31.3241 350.9386,-32.5529 359.9314,-38.1547 361.462,-31.3241"/>
</g>
</g>
</svg>
