<?xml version="1.0" encoding="UTF-8" standalone="no"?>
<!DOCTYPE svg PUBLIC "-//W3C//DTD SVG 1.1//EN"
 "http://www.w3.org/Graphics/SVG/1.1/DTD/svg11.dtd">
<!-- Generated by graphviz version 2.40.1 (20161225.0304)
 -->
<!-- Title: state transitions Pages: 1 -->
<svg width="408pt" height="434pt"
 viewBox="0.00 0.00 407.52 434.00" xmlns="http://www.w3.org/2000/svg" xmlns:xlink="http://www.w3.org/1999/xlink">
<g id="graph0" class="graph" transform="scale(1 1) rotate(0) translate(4 430)">
<title>state transitions</title>
<polygon fill="#ffffff" stroke="transparent" points="-4,4 -4,-430 403.52,-430 403.52,4 -4,4"/>
<g id="clust1" class="cluster state regular">
<title>cluster_next_state</title>
<path fill="none" stroke="#000000" stroke-width="2" d="M20,-8C20,-8 293,-8 293,-8 299,-8 305,-14 305,-20 305,-20 305,-406 305,-406 305,-412 299,-418 293,-418 293,-418 20,-418 20,-418 14,-418 8,-412 8,-406 8,-406 8,-20 8,-20 8,-14 14,-8 20,-8"/>
<text text-anchor="start" x="129.3208" y="-399.2" font-family="Helvetica,sans-Serif" font-size="12.00" fill="#000000">next_state</text>
</g>
<!-- next_state -->
<!-- idle_state -->
<g id="node2" class="node state regular">
<title>idle_state</title>
<polygon fill="#ffffff" fill-opacity="0.003922" stroke="transparent" stroke-width="2" points="136.5,-380 63.5,-380 63.5,-344 136.5,-344 136.5,-380"/>
<text text-anchor="start" x="74.8254" y="-358.2" font-family="Helvetica,sans-Serif" font-size="12.00" fill="#000000">idle_state</text>
<path fill="none" stroke="#000000" stroke-width="2" d="M75.8333,-345C75.8333,-345 124.1667,-345 124.1667,-345 129.8333,-345 135.5,-350.6667 135.5,-356.3333 135.5,-356.3333 135.5,-367.6667 135.5,-367.6667 135.5,-373.3333 129.8333,-379 124.1667,-379 124.1667,-379 75.8333,-379 75.8333,-379 70.1667,-379 64.5,-373.3333 64.5,-367.6667 64.5,-367.6667 64.5,-356.3333 64.5,-356.3333 64.5,-350.6667 70.1667,-345 75.8333,-345"/>
</g>
<!-- buffer_read_state -->
<g id="node3" class="node state regular">
<title>buffer_read_state</title>
<polygon fill="#ffffff" fill-opacity="0.003922" stroke="transparent" stroke-width="2" points="132,-298 16,-298 16,-262 132,-262 132,-298"/>
<text text-anchor="start" x="26.9816" y="-276.2" font-family="Helvetica,sans-Serif" font-size="12.00" fill="#000000">buffer_read_state</text>
<path fill="none" stroke="#000000" stroke-width="2" d="M28.3333,-263C28.3333,-263 119.6667,-263 119.6667,-263 125.3333,-263 131,-268.6667 131,-274.3333 131,-274.3333 131,-285.6667 131,-285.6667 131,-291.3333 125.3333,-297 119.6667,-297 119.6667,-297 28.3333,-297 28.3333,-297 22.6667,-297 17,-291.3333 17,-285.6667 17,-285.6667 17,-274.3333 17,-274.3333 17,-268.6667 22.6667,-263 28.3333,-263"/>
</g>
<!-- idle_state&#45;&gt;buffer_read_state -->
<g id="edge1" class="edge transition">
<title>idle_state&#45;&gt;buffer_read_state</title>
<path fill="none" stroke="#000000" d="M68.826,-343.6213C63.4105,-338.9261 58.5302,-333.3705 55.433,-327 52.3917,-320.7445 53.0149,-313.8558 55.3245,-307.3261"/>
<polygon fill="#000000" stroke="#000000" points="58.5622,-308.667 59.6847,-298.1317 52.2374,-305.6675 58.5622,-308.667"/>
<text text-anchor="start" x="55" y="-318" font-family="Helvetica,sans-Serif" font-size="10.00" fill="#000000">(vld_collect_header = &#39;1&#39;) and lock_next = &#39;0&#39; &#160;&#160;</text>
</g>
<!-- fetch_state -->
<g id="node6" class="node state regular">
<title>fetch_state</title>
<polygon fill="#ffffff" fill-opacity="0.003922" stroke="transparent" stroke-width="2" points="100,-216 20,-216 20,-180 100,-180 100,-216"/>
<text text-anchor="start" x="30.6534" y="-194.2" font-family="Helvetica,sans-Serif" font-size="12.00" fill="#000000">fetch_state</text>
<path fill="none" stroke="#000000" stroke-width="2" d="M32.3333,-181C32.3333,-181 87.6667,-181 87.6667,-181 93.3333,-181 99,-186.6667 99,-192.3333 99,-192.3333 99,-203.6667 99,-203.6667 99,-209.3333 93.3333,-215 87.6667,-215 87.6667,-215 32.3333,-215 32.3333,-215 26.6667,-215 21,-209.3333 21,-203.6667 21,-203.6667 21,-192.3333 21,-192.3333 21,-186.6667 26.6667,-181 32.3333,-181"/>
</g>
<!-- buffer_read_state&#45;&gt;fetch_state -->
<g id="edge2" class="edge transition">
<title>buffer_read_state&#45;&gt;fetch_state</title>
<path fill="none" stroke="#000000" d="M70.8929,-261.8015C69.0985,-251.2915 66.8037,-237.8503 64.7835,-226.0177"/>
<polygon fill="#000000" stroke="#000000" points="68.2315,-225.4159 63.0984,-216.1476 61.3313,-226.594 68.2315,-225.4159"/>
<text text-anchor="middle" x="68.3895" y="-236" font-family="Helvetica,sans-Serif" font-size="10.00" fill="#000000"> </text>
</g>
<!-- output_state -->
<g id="node4" class="node state regular">
<title>output_state</title>
<polygon fill="#ffffff" fill-opacity="0.003922" stroke="transparent" stroke-width="2" points="104,-52 16,-52 16,-16 104,-16 104,-52"/>
<text text-anchor="start" x="26.9826" y="-30.2" font-family="Helvetica,sans-Serif" font-size="12.00" fill="#000000">output_state</text>
<path fill="none" stroke="#000000" stroke-width="2" d="M28.3333,-17C28.3333,-17 91.6667,-17 91.6667,-17 97.3333,-17 103,-22.6667 103,-28.3333 103,-28.3333 103,-39.6667 103,-39.6667 103,-45.3333 97.3333,-51 91.6667,-51 91.6667,-51 28.3333,-51 28.3333,-51 22.6667,-51 17,-45.3333 17,-39.6667 17,-39.6667 17,-28.3333 17,-28.3333 17,-22.6667 22.6667,-17 28.3333,-17"/>
</g>
<!-- output_state&#45;&gt;idle_state -->
<g id="edge3" class="edge transition">
<title>output_state&#45;&gt;idle_state</title>
<path fill="none" stroke="#000000" d="M104.0571,-39.5883C157.9205,-47.0331 242,-60.9108 242,-75 242,-142.5 242,-142.5 242,-142.5 242,-219.6802 257.5481,-237.9483 262,-315 262.3076,-320.3245 265.3495,-322.8496 262,-327 260.1429,-329.3012 193.8338,-343.0864 146.6369,-352.6533"/>
<polygon fill="#000000" stroke="#000000" points="145.6973,-349.2724 136.5893,-354.6849 147.0847,-356.1336 145.6973,-349.2724"/>
<text text-anchor="start" x="247" y="-195" font-family="Helvetica,sans-Serif" font-size="10.00" fill="#000000">rdy_codeword_concatinator = &#39;1&#39; &#160;&#160;</text>
</g>
<!-- output_state&#45;&gt;output_state -->
<g id="edge4" class="edge transition">
<title>output_state&#45;&gt;output_state</title>
<path fill="none" stroke="#000000" d="M104.1067,-38.8509C116.4925,-38.6385 126,-37.0215 126,-34 126,-31.8755 121.2996,-30.4454 114.2033,-29.7097"/>
<polygon fill="#000000" stroke="#000000" points="114.2854,-26.2089 104.1067,-29.1491 113.8973,-33.1982 114.2854,-26.2089"/>
<text text-anchor="start" x="126" y="-31" font-family="Helvetica,sans-Serif" font-size="10.00" fill="#000000">not (rdy_codeword_concatinator = &#39;1&#39;) &#160;&#160;</text>
</g>
<!-- read_state -->
<g id="node5" class="node state regular">
<title>read_state</title>
<polygon fill="#ffffff" fill-opacity="0.003922" stroke="transparent" stroke-width="2" points="99,-134 21,-134 21,-98 99,-98 99,-134"/>
<text text-anchor="start" x="31.6554" y="-112.2" font-family="Helvetica,sans-Serif" font-size="12.00" fill="#000000">read_state</text>
<path fill="none" stroke="#000000" stroke-width="2" d="M33.3333,-99C33.3333,-99 86.6667,-99 86.6667,-99 92.3333,-99 98,-104.6667 98,-110.3333 98,-110.3333 98,-121.6667 98,-121.6667 98,-127.3333 92.3333,-133 86.6667,-133 86.6667,-133 33.3333,-133 33.3333,-133 27.6667,-133 22,-127.3333 22,-121.6667 22,-121.6667 22,-110.3333 22,-110.3333 22,-104.6667 27.6667,-99 33.3333,-99"/>
</g>
<!-- read_state&#45;&gt;output_state -->
<g id="edge5" class="edge transition">
<title>read_state&#45;&gt;output_state</title>
<path fill="none" stroke="#000000" d="M60,-97.8015C60,-87.3976 60,-74.1215 60,-62.3768"/>
<polygon fill="#000000" stroke="#000000" points="63.5001,-62.1476 60,-52.1476 56.5001,-62.1476 63.5001,-62.1476"/>
<text text-anchor="start" x="60" y="-72" font-family="Helvetica,sans-Serif" font-size="10.00" fill="#000000">eof_key_flag_next = &#39;1&#39; &#160;&#160;</text>
</g>
<!-- read_state&#45;&gt;fetch_state -->
<g id="edge6" class="edge transition">
<title>read_state&#45;&gt;fetch_state</title>
<path fill="none" stroke="#000000" d="M60,-134.1476C60,-144.5421 60,-157.816 60,-169.5658"/>
<polygon fill="#000000" stroke="#000000" points="56.5001,-169.8015 60,-179.8015 63.5001,-169.8016 56.5001,-169.8015"/>
<text text-anchor="start" x="60" y="-154" font-family="Helvetica,sans-Serif" font-size="10.00" fill="#000000">not (eof_key_flag_next = &#39;1&#39;) &#160;&#160;</text>
</g>
<!-- fetch_state&#45;&gt;read_state -->
<g id="edge7" class="edge transition">
<title>fetch_state&#45;&gt;read_state</title>
<path fill="none" stroke="#000000" d="M55.2006,-179.9605C53.9753,-174.5478 52.8324,-168.5687 52.221,-163 51.5502,-156.8905 51.9244,-150.3676 52.7933,-144.186"/>
<polygon fill="#000000" stroke="#000000" points="56.2562,-144.7071 54.6257,-134.2385 49.372,-143.4389 56.2562,-144.7071"/>
<text text-anchor="middle" x="53.3895" y="-154" font-family="Helvetica,sans-Serif" font-size="10.00" fill="#000000"> </text>
</g>
</g>
</svg>
