<?xml version="1.0" encoding="UTF-8" standalone="no"?>
<!DOCTYPE svg PUBLIC "-//W3C//DTD SVG 1.1//EN"
 "http://www.w3.org/Graphics/SVG/1.1/DTD/svg11.dtd">
<!-- Generated by graphviz version 2.40.1 (20161225.0304)
 -->
<!-- Title: %0 Pages: 1 -->
<svg width="1010pt" height="332pt"
 viewBox="0.00 0.00 1009.52 332.00" xmlns="http://www.w3.org/2000/svg" xmlns:xlink="http://www.w3.org/1999/xlink">
<g id="graph0" class="graph" transform="scale(1 1) rotate(0) translate(4 328)">
<title>%0</title>
<polygon fill="#ffffff" stroke="transparent" points="-4,4 -4,-328 1005.5238,-328 1005.5238,4 -4,4"/>
<!-- c:\Users\Mig\Desktop\Layer4&#45;Firewall\hardware\sim\blueprint\my_types_pkg.vhd -->
<g id="node1" class="node">
<title>c:\Users\Mig\Desktop\Layer4&#45;Firewall\hardware\sim\blueprint\my_types_pkg.vhd</title>
<polygon fill="#d3d3d3" stroke="#069302" points="530.2786,-36 397.8728,-36 397.8728,-32 393.8728,-32 393.8728,-28 397.8728,-28 397.8728,-8 393.8728,-8 393.8728,-4 397.8728,-4 397.8728,0 530.2786,0 530.2786,-36"/>
<polyline fill="none" stroke="#069302" points="397.8728,-32 401.8728,-32 401.8728,-28 397.8728,-28 "/>
<polyline fill="none" stroke="#069302" points="397.8728,-8 401.8728,-8 401.8728,-4 397.8728,-4 "/>
<text text-anchor="middle" x="464.0757" y="-13.8" font-family="Helvetica,sans-Serif" font-size="14.00" fill="#000000">my_types_pkg.vhd</text>
</g>
<!-- c:\Users\Mig\Desktop\Layer4&#45;Firewall\hardware\sim\blueprint\trie_and_SRAM\codeword_concatinator.vhd -->
<g id="node2" class="node">
<title>c:\Users\Mig\Desktop\Layer4&#45;Firewall\hardware\sim\blueprint\trie_and_SRAM\codeword_concatinator.vhd</title>
<polygon fill="#d3d3d3" stroke="#069302" points="243.7384,-108 56.413,-108 56.413,-104 52.413,-104 52.413,-100 56.413,-100 56.413,-80 52.413,-80 52.413,-76 56.413,-76 56.413,-72 243.7384,-72 243.7384,-108"/>
<polyline fill="none" stroke="#069302" points="56.413,-104 60.413,-104 60.413,-100 56.413,-100 "/>
<polyline fill="none" stroke="#069302" points="56.413,-80 60.413,-80 60.413,-76 56.413,-76 "/>
<text text-anchor="middle" x="150.0757" y="-85.8" font-family="Helvetica,sans-Serif" font-size="14.00" fill="#000000">codeword_concatinator.vhd</text>
</g>
<!-- c:\Users\Mig\Desktop\Layer4&#45;Firewall\hardware\sim\blueprint\trie_and_SRAM\codeword_concatinator.vhd&#45;&gt;c:\Users\Mig\Desktop\Layer4&#45;Firewall\hardware\sim\blueprint\my_types_pkg.vhd -->
<g id="edge1" class="edge">
<title>c:\Users\Mig\Desktop\Layer4&#45;Firewall\hardware\sim\blueprint\trie_and_SRAM\codeword_concatinator.vhd&#45;&gt;c:\Users\Mig\Desktop\Layer4&#45;Firewall\hardware\sim\blueprint\my_types_pkg.vhd</title>
<path fill="none" stroke="#000000" d="M228.9059,-71.9243C277.5985,-60.7591 339.7594,-46.5056 387.9426,-35.4573"/>
<polygon fill="#000000" stroke="#000000" points="388.7284,-38.868 397.6932,-33.2215 387.1639,-32.0451 388.7284,-38.868"/>
</g>
<!-- c:\Users\Mig\Desktop\Layer4&#45;Firewall\hardware\sim\blueprint\trie_and_SRAM\SRAM.vhd -->
<g id="node3" class="node">
<title>c:\Users\Mig\Desktop\Layer4&#45;Firewall\hardware\sim\blueprint\trie_and_SRAM\SRAM.vhd</title>
<polygon fill="#d3d3d3" stroke="#069302" points="1001.472,-36 918.6794,-36 918.6794,-32 914.6794,-32 914.6794,-28 918.6794,-28 918.6794,-8 914.6794,-8 914.6794,-4 918.6794,-4 918.6794,0 1001.472,0 1001.472,-36"/>
<polyline fill="none" stroke="#069302" points="918.6794,-32 922.6794,-32 922.6794,-28 918.6794,-28 "/>
<polyline fill="none" stroke="#069302" points="918.6794,-8 922.6794,-8 922.6794,-4 918.6794,-4 "/>
<text text-anchor="middle" x="960.0757" y="-13.8" font-family="Helvetica,sans-Serif" font-size="14.00" fill="#000000">SRAM.vhd</text>
</g>
<!-- c:\Users\Mig\Desktop\Layer4&#45;Firewall\hardware\sim\blueprint\trie_and_SRAM\tree_and_sram.vhd -->
<g id="node4" class="node">
<title>c:\Users\Mig\Desktop\Layer4&#45;Firewall\hardware\sim\blueprint\trie_and_SRAM\tree_and_sram.vhd</title>
<polygon fill="#d3d3d3" stroke="#069302" points="975.1653,-108 838.9861,-108 838.9861,-104 834.9861,-104 834.9861,-100 838.9861,-100 838.9861,-80 834.9861,-80 834.9861,-76 838.9861,-76 838.9861,-72 975.1653,-72 975.1653,-108"/>
<polyline fill="none" stroke="#069302" points="838.9861,-104 842.9861,-104 842.9861,-100 838.9861,-100 "/>
<polyline fill="none" stroke="#069302" points="838.9861,-80 842.9861,-80 842.9861,-76 838.9861,-76 "/>
<text text-anchor="middle" x="907.0757" y="-85.8" font-family="Helvetica,sans-Serif" font-size="14.00" fill="#000000">tree_and_sram.vhd</text>
</g>
<!-- c:\Users\Mig\Desktop\Layer4&#45;Firewall\hardware\sim\blueprint\trie_and_SRAM\tree_and_sram.vhd&#45;&gt;c:\Users\Mig\Desktop\Layer4&#45;Firewall\hardware\sim\blueprint\my_types_pkg.vhd -->
<g id="edge3" class="edge">
<title>c:\Users\Mig\Desktop\Layer4&#45;Firewall\hardware\sim\blueprint\trie_and_SRAM\tree_and_sram.vhd&#45;&gt;c:\Users\Mig\Desktop\Layer4&#45;Firewall\hardware\sim\blueprint\my_types_pkg.vhd</title>
<path fill="none" stroke="#000000" d="M838.689,-74.626C834.0888,-73.7037 829.5191,-72.8191 825.0757,-72 727.3118,-53.9791 613.8082,-37.767 540.5652,-27.9136"/>
<polygon fill="#000000" stroke="#000000" points="540.8794,-24.4246 530.5033,-26.566 539.9501,-31.3626 540.8794,-24.4246"/>
</g>
<!-- c:\Users\Mig\Desktop\Layer4&#45;Firewall\hardware\sim\blueprint\trie_and_SRAM\tree_and_sram.vhd&#45;&gt;c:\Users\Mig\Desktop\Layer4&#45;Firewall\hardware\sim\blueprint\trie_and_SRAM\SRAM.vhd -->
<g id="edge2" class="edge">
<title>c:\Users\Mig\Desktop\Layer4&#45;Firewall\hardware\sim\blueprint\trie_and_SRAM\tree_and_sram.vhd&#45;&gt;c:\Users\Mig\Desktop\Layer4&#45;Firewall\hardware\sim\blueprint\trie_and_SRAM\SRAM.vhd</title>
<path fill="none" stroke="#000000" d="M920.4498,-71.8314C926.4919,-63.6232 933.752,-53.7606 940.3978,-44.7323"/>
<polygon fill="#000000" stroke="#000000" points="943.412,-46.5415 946.5215,-36.4133 937.7746,-42.3918 943.412,-46.5415"/>
</g>
<!-- c:\Users\Mig\Desktop\Layer4&#45;Firewall\hardware\sim\blueprint\trie_and_SRAM\trie_tree.vhd -->
<g id="node7" class="node">
<title>c:\Users\Mig\Desktop\Layer4&#45;Firewall\hardware\sim\blueprint\trie_and_SRAM\trie_tree.vhd</title>
<polygon fill="#d3d3d3" stroke="#069302" points="900.8711,-36 807.2803,-36 807.2803,-32 803.2803,-32 803.2803,-28 807.2803,-28 807.2803,-8 803.2803,-8 803.2803,-4 807.2803,-4 807.2803,0 900.8711,0 900.8711,-36"/>
<polyline fill="none" stroke="#069302" points="807.2803,-32 811.2803,-32 811.2803,-28 807.2803,-28 "/>
<polyline fill="none" stroke="#069302" points="807.2803,-8 811.2803,-8 811.2803,-4 807.2803,-4 "/>
<text text-anchor="middle" x="854.0757" y="-13.8" font-family="Helvetica,sans-Serif" font-size="14.00" fill="#000000">trie_tree.vhd</text>
</g>
<!-- c:\Users\Mig\Desktop\Layer4&#45;Firewall\hardware\sim\blueprint\trie_and_SRAM\tree_and_sram.vhd&#45;&gt;c:\Users\Mig\Desktop\Layer4&#45;Firewall\hardware\sim\blueprint\trie_and_SRAM\trie_tree.vhd -->
<g id="edge4" class="edge">
<title>c:\Users\Mig\Desktop\Layer4&#45;Firewall\hardware\sim\blueprint\trie_and_SRAM\tree_and_sram.vhd&#45;&gt;c:\Users\Mig\Desktop\Layer4&#45;Firewall\hardware\sim\blueprint\trie_and_SRAM\trie_tree.vhd</title>
<path fill="none" stroke="#000000" d="M893.7016,-71.8314C887.6595,-63.6232 880.3994,-53.7606 873.7536,-44.7323"/>
<polygon fill="#000000" stroke="#000000" points="876.3768,-42.3918 867.6299,-36.4133 870.7394,-46.5415 876.3768,-42.3918"/>
</g>
<!-- c:\Users\Mig\Desktop\Layer4&#45;Firewall\hardware\sim\blueprint\trie_and_SRAM\tree_collection.vhd -->
<g id="node5" class="node">
<title>c:\Users\Mig\Desktop\Layer4&#45;Firewall\hardware\sim\blueprint\trie_and_SRAM\tree_collection.vhd</title>
<polygon fill="#d3d3d3" stroke="#069302" points="190.2716,-180 57.8798,-180 57.8798,-176 53.8798,-176 53.8798,-172 57.8798,-172 57.8798,-152 53.8798,-152 53.8798,-148 57.8798,-148 57.8798,-144 190.2716,-144 190.2716,-180"/>
<polyline fill="none" stroke="#069302" points="57.8798,-176 61.8798,-176 61.8798,-172 57.8798,-172 "/>
<polyline fill="none" stroke="#069302" points="57.8798,-152 61.8798,-152 61.8798,-148 57.8798,-148 "/>
<text text-anchor="middle" x="124.0757" y="-157.8" font-family="Helvetica,sans-Serif" font-size="14.00" fill="#000000">tree_collection.vhd</text>
</g>
<!-- c:\Users\Mig\Desktop\Layer4&#45;Firewall\hardware\sim\blueprint\trie_and_SRAM\tree_collection.vhd&#45;&gt;c:\Users\Mig\Desktop\Layer4&#45;Firewall\hardware\sim\blueprint\my_types_pkg.vhd -->
<g id="edge5" class="edge">
<title>c:\Users\Mig\Desktop\Layer4&#45;Firewall\hardware\sim\blueprint\trie_and_SRAM\tree_collection.vhd&#45;&gt;c:\Users\Mig\Desktop\Layer4&#45;Firewall\hardware\sim\blueprint\my_types_pkg.vhd</title>
<path fill="none" stroke="#000000" d="M179.2982,-143.9322C202.9982,-134.9255 230.3935,-122.7768 253.0757,-108 272.5685,-95.301 271.0085,-83.7703 291.0757,-72 320.5855,-54.6912 356.2369,-42.3441 387.4891,-33.8664"/>
<polygon fill="#000000" stroke="#000000" points="388.6835,-37.1716 397.468,-31.2485 386.9072,-30.4007 388.6835,-37.1716"/>
</g>
<!-- c:\Users\Mig\Desktop\Layer4&#45;Firewall\hardware\sim\blueprint\trie_and_SRAM\tree_collection.vhd&#45;&gt;c:\Users\Mig\Desktop\Layer4&#45;Firewall\hardware\sim\blueprint\trie_and_SRAM\codeword_concatinator.vhd -->
<g id="edge6" class="edge">
<title>c:\Users\Mig\Desktop\Layer4&#45;Firewall\hardware\sim\blueprint\trie_and_SRAM\tree_collection.vhd&#45;&gt;c:\Users\Mig\Desktop\Layer4&#45;Firewall\hardware\sim\blueprint\trie_and_SRAM\codeword_concatinator.vhd</title>
<path fill="none" stroke="#000000" d="M130.6366,-143.8314C133.4784,-135.9617 136.8694,-126.5712 140.0176,-117.8533"/>
<polygon fill="#000000" stroke="#000000" points="143.3219,-119.0076 143.4265,-108.4133 136.738,-116.63 143.3219,-119.0076"/>
</g>
<!-- c:\Users\Mig\Desktop\Layer4&#45;Firewall\hardware\sim\blueprint\trie_and_SRAM\tree_collection_tb.vhd -->
<g id="node6" class="node">
<title>c:\Users\Mig\Desktop\Layer4&#45;Firewall\hardware\sim\blueprint\trie_and_SRAM\tree_collection_tb.vhd</title>
<polygon fill="#d3d3d3" stroke="#069302" points="152.2272,-252 -.0758,-252 -.0758,-248 -4.0758,-248 -4.0758,-244 -.0758,-244 -.0758,-224 -4.0758,-224 -4.0758,-220 -.0758,-220 -.0758,-216 152.2272,-216 152.2272,-252"/>
<polyline fill="none" stroke="#069302" points="-.0758,-248 3.9242,-248 3.9242,-244 -.0758,-244 "/>
<polyline fill="none" stroke="#069302" points="-.0758,-224 3.9242,-224 3.9242,-220 -.0758,-220 "/>
<text text-anchor="middle" x="76.0757" y="-229.8" font-family="Helvetica,sans-Serif" font-size="14.00" fill="#000000">tree_collection_tb.vhd</text>
</g>
<!-- c:\Users\Mig\Desktop\Layer4&#45;Firewall\hardware\sim\blueprint\trie_and_SRAM\tree_collection_tb.vhd&#45;&gt;c:\Users\Mig\Desktop\Layer4&#45;Firewall\hardware\sim\blueprint\my_types_pkg.vhd -->
<g id="edge7" class="edge">
<title>c:\Users\Mig\Desktop\Layer4&#45;Firewall\hardware\sim\blueprint\trie_and_SRAM\tree_collection_tb.vhd&#45;&gt;c:\Users\Mig\Desktop\Layer4&#45;Firewall\hardware\sim\blueprint\my_types_pkg.vhd</title>
<path fill="none" stroke="#000000" d="M64.4488,-215.8999C44.9244,-182.9944 11.05,-112.9918 47.0757,-72 69.1494,-46.8835 273.2275,-30.0584 387.4805,-22.5218"/>
<polygon fill="#000000" stroke="#000000" points="387.8209,-26.0072 397.5724,-21.8649 387.3661,-19.022 387.8209,-26.0072"/>
</g>
<!-- c:\Users\Mig\Desktop\Layer4&#45;Firewall\hardware\sim\blueprint\trie_and_SRAM\tree_collection_tb.vhd&#45;&gt;c:\Users\Mig\Desktop\Layer4&#45;Firewall\hardware\sim\blueprint\trie_and_SRAM\tree_collection.vhd -->
<g id="edge8" class="edge">
<title>c:\Users\Mig\Desktop\Layer4&#45;Firewall\hardware\sim\blueprint\trie_and_SRAM\tree_collection_tb.vhd&#45;&gt;c:\Users\Mig\Desktop\Layer4&#45;Firewall\hardware\sim\blueprint\trie_and_SRAM\tree_collection.vhd</title>
<path fill="none" stroke="#000000" d="M88.1881,-215.8314C93.6038,-207.7079 100.0999,-197.9637 106.0678,-189.0118"/>
<polygon fill="#000000" stroke="#000000" points="109.1653,-190.6753 111.8002,-180.4133 103.341,-186.7923 109.1653,-190.6753"/>
</g>
<!-- c:\Users\Mig\Desktop\Layer4&#45;Firewall\hardware\sim\blueprint\system_blueprint.vhd -->
<g id="node8" class="node">
<title>c:\Users\Mig\Desktop\Layer4&#45;Firewall\hardware\sim\blueprint\system_blueprint.vhd</title>
<polygon fill="#d3d3d3" stroke="#069302" points="624.3255,-252 475.8259,-252 475.8259,-248 471.8259,-248 471.8259,-244 475.8259,-244 475.8259,-224 471.8259,-224 471.8259,-220 475.8259,-220 475.8259,-216 624.3255,-216 624.3255,-252"/>
<polyline fill="none" stroke="#069302" points="475.8259,-248 479.8259,-248 479.8259,-244 475.8259,-244 "/>
<polyline fill="none" stroke="#069302" points="475.8259,-224 479.8259,-224 479.8259,-220 475.8259,-220 "/>
<text text-anchor="middle" x="550.0757" y="-229.8" font-family="Helvetica,sans-Serif" font-size="14.00" fill="#000000">system_blueprint.vhd</text>
</g>
<!-- c:\Users\Mig\Desktop\Layer4&#45;Firewall\hardware\sim\blueprint\system_blueprint.vhd&#45;&gt;c:\Users\Mig\Desktop\Layer4&#45;Firewall\hardware\sim\blueprint\my_types_pkg.vhd -->
<g id="edge13" class="edge">
<title>c:\Users\Mig\Desktop\Layer4&#45;Firewall\hardware\sim\blueprint\system_blueprint.vhd&#45;&gt;c:\Users\Mig\Desktop\Layer4&#45;Firewall\hardware\sim\blueprint\my_types_pkg.vhd</title>
<path fill="none" stroke="#000000" d="M568.7415,-215.6688C598.4989,-184.1823 650.1236,-118.7099 617.0757,-72 607.4138,-58.3438 573.7819,-45.7354 540.5025,-36.1421"/>
<polygon fill="#000000" stroke="#000000" points="541.2544,-32.7181 530.681,-33.3912 539.3664,-39.4587 541.2544,-32.7181"/>
</g>
<!-- c:\Users\Mig\Desktop\Layer4&#45;Firewall\hardware\sim\blueprint\system_blueprint.vhd&#45;&gt;c:\Users\Mig\Desktop\Layer4&#45;Firewall\hardware\sim\blueprint\trie_and_SRAM\tree_collection.vhd -->
<g id="edge11" class="edge">
<title>c:\Users\Mig\Desktop\Layer4&#45;Firewall\hardware\sim\blueprint\system_blueprint.vhd&#45;&gt;c:\Users\Mig\Desktop\Layer4&#45;Firewall\hardware\sim\blueprint\trie_and_SRAM\tree_collection.vhd</title>
<path fill="none" stroke="#000000" d="M475.8109,-224.3953C406.849,-215.0613 301.1367,-199.7001 200.6851,-180.2427"/>
<polygon fill="#000000" stroke="#000000" points="201.1548,-176.7683 190.6691,-178.2854 199.8122,-183.6384 201.1548,-176.7683"/>
</g>
<!-- c:\Users\Mig\Desktop\Layer4&#45;Firewall\hardware\sim\blueprint\accept_deny\accept_deny.vhd -->
<g id="node10" class="node">
<title>c:\Users\Mig\Desktop\Layer4&#45;Firewall\hardware\sim\blueprint\accept_deny\accept_deny.vhd</title>
<polygon fill="#d3d3d3" stroke="#069302" points="782.9004,-180 661.251,-180 661.251,-176 657.251,-176 657.251,-172 661.251,-172 661.251,-152 657.251,-152 657.251,-148 661.251,-148 661.251,-144 782.9004,-144 782.9004,-180"/>
<polyline fill="none" stroke="#069302" points="661.251,-176 665.251,-176 665.251,-172 661.251,-172 "/>
<polyline fill="none" stroke="#069302" points="661.251,-152 665.251,-152 665.251,-148 661.251,-148 "/>
<text text-anchor="middle" x="722.0757" y="-157.8" font-family="Helvetica,sans-Serif" font-size="14.00" fill="#000000">accept_deny.vhd</text>
</g>
<!-- c:\Users\Mig\Desktop\Layer4&#45;Firewall\hardware\sim\blueprint\system_blueprint.vhd&#45;&gt;c:\Users\Mig\Desktop\Layer4&#45;Firewall\hardware\sim\blueprint\accept_deny\accept_deny.vhd -->
<g id="edge15" class="edge">
<title>c:\Users\Mig\Desktop\Layer4&#45;Firewall\hardware\sim\blueprint\system_blueprint.vhd&#45;&gt;c:\Users\Mig\Desktop\Layer4&#45;Firewall\hardware\sim\blueprint\accept_deny\accept_deny.vhd</title>
<path fill="none" stroke="#000000" d="M593.4786,-215.8314C616.5848,-206.159 645.1795,-194.1891 669.5334,-183.9944"/>
<polygon fill="#000000" stroke="#000000" points="671.112,-187.128 678.9849,-180.038 668.409,-180.6709 671.112,-187.128"/>
</g>
<!-- c:\Users\Mig\Desktop\Layer4&#45;Firewall\hardware\sim\blueprint\accept_deny\fifo.vhd -->
<g id="node11" class="node">
<title>c:\Users\Mig\Desktop\Layer4&#45;Firewall\hardware\sim\blueprint\accept_deny\fifo.vhd</title>
<polygon fill="#d3d3d3" stroke="#069302" points="269.702,-180 208.4494,-180 208.4494,-176 204.4494,-176 204.4494,-172 208.4494,-172 208.4494,-152 204.4494,-152 204.4494,-148 208.4494,-148 208.4494,-144 269.702,-144 269.702,-180"/>
<polyline fill="none" stroke="#069302" points="208.4494,-176 212.4494,-176 212.4494,-172 208.4494,-172 "/>
<polyline fill="none" stroke="#069302" points="208.4494,-152 212.4494,-152 212.4494,-148 208.4494,-148 "/>
<text text-anchor="middle" x="239.0757" y="-157.8" font-family="Helvetica,sans-Serif" font-size="14.00" fill="#000000">fifo.vhd</text>
</g>
<!-- c:\Users\Mig\Desktop\Layer4&#45;Firewall\hardware\sim\blueprint\system_blueprint.vhd&#45;&gt;c:\Users\Mig\Desktop\Layer4&#45;Firewall\hardware\sim\blueprint\accept_deny\fifo.vhd -->
<g id="edge10" class="edge">
<title>c:\Users\Mig\Desktop\Layer4&#45;Firewall\hardware\sim\blueprint\system_blueprint.vhd&#45;&gt;c:\Users\Mig\Desktop\Layer4&#45;Firewall\hardware\sim\blueprint\accept_deny\fifo.vhd</title>
<path fill="none" stroke="#000000" d="M475.8963,-223.8574C423.1461,-215.5822 350.7268,-202.064 279.4105,-179.7242"/>
<polygon fill="#000000" stroke="#000000" points="280.4039,-176.3674 269.8131,-176.6615 278.2757,-183.0361 280.4039,-176.3674"/>
</g>
<!-- c:\Users\Mig\Desktop\Layer4&#45;Firewall\hardware\sim\blueprint\collect_header\Collect_header.vhd -->
<g id="node12" class="node">
<title>c:\Users\Mig\Desktop\Layer4&#45;Firewall\hardware\sim\blueprint\collect_header\Collect_header.vhd</title>
<polygon fill="#d3d3d3" stroke="#069302" points="424.1639,-180 287.9875,-180 287.9875,-176 283.9875,-176 283.9875,-172 287.9875,-172 287.9875,-152 283.9875,-152 283.9875,-148 287.9875,-148 287.9875,-144 424.1639,-144 424.1639,-180"/>
<polyline fill="none" stroke="#069302" points="287.9875,-176 291.9875,-176 291.9875,-172 287.9875,-172 "/>
<polyline fill="none" stroke="#069302" points="287.9875,-152 291.9875,-152 291.9875,-148 287.9875,-148 "/>
<text text-anchor="middle" x="356.0757" y="-157.8" font-family="Helvetica,sans-Serif" font-size="14.00" fill="#000000">Collect_header.vhd</text>
</g>
<!-- c:\Users\Mig\Desktop\Layer4&#45;Firewall\hardware\sim\blueprint\system_blueprint.vhd&#45;&gt;c:\Users\Mig\Desktop\Layer4&#45;Firewall\hardware\sim\blueprint\collect_header\Collect_header.vhd -->
<g id="edge14" class="edge">
<title>c:\Users\Mig\Desktop\Layer4&#45;Firewall\hardware\sim\blueprint\system_blueprint.vhd&#45;&gt;c:\Users\Mig\Desktop\Layer4&#45;Firewall\hardware\sim\blueprint\collect_header\Collect_header.vhd</title>
<path fill="none" stroke="#000000" d="M501.1213,-215.8314C474.7137,-206.0306 441.9501,-193.8709 414.2471,-183.5894"/>
<polygon fill="#000000" stroke="#000000" points="415.271,-180.2362 404.6781,-180.038 412.8354,-186.7988 415.271,-180.2362"/>
</g>
<!-- c:\Users\Mig\Desktop\Layer4&#45;Firewall\hardware\sim\blueprint\cuckoo_hash\cuckoo_hash.vhd -->
<g id="node13" class="node">
<title>c:\Users\Mig\Desktop\Layer4&#45;Firewall\hardware\sim\blueprint\cuckoo_hash\cuckoo_hash.vhd</title>
<polygon fill="#d3d3d3" stroke="#069302" points="567.5097,-180 442.6417,-180 442.6417,-176 438.6417,-176 438.6417,-172 442.6417,-172 442.6417,-152 438.6417,-152 438.6417,-148 442.6417,-148 442.6417,-144 567.5097,-144 567.5097,-180"/>
<polyline fill="none" stroke="#069302" points="442.6417,-176 446.6417,-176 446.6417,-172 442.6417,-172 "/>
<polyline fill="none" stroke="#069302" points="442.6417,-152 446.6417,-152 446.6417,-148 442.6417,-148 "/>
<text text-anchor="middle" x="505.0757" y="-157.8" font-family="Helvetica,sans-Serif" font-size="14.00" fill="#000000">cuckoo_hash.vhd</text>
</g>
<!-- c:\Users\Mig\Desktop\Layer4&#45;Firewall\hardware\sim\blueprint\system_blueprint.vhd&#45;&gt;c:\Users\Mig\Desktop\Layer4&#45;Firewall\hardware\sim\blueprint\cuckoo_hash\cuckoo_hash.vhd -->
<g id="edge9" class="edge">
<title>c:\Users\Mig\Desktop\Layer4&#45;Firewall\hardware\sim\blueprint\system_blueprint.vhd&#45;&gt;c:\Users\Mig\Desktop\Layer4&#45;Firewall\hardware\sim\blueprint\cuckoo_hash\cuckoo_hash.vhd</title>
<path fill="none" stroke="#000000" d="M538.7203,-215.8314C533.6431,-207.7079 527.553,-197.9637 521.9581,-189.0118"/>
<polygon fill="#000000" stroke="#000000" points="524.852,-187.0383 516.584,-180.4133 518.916,-190.7483 524.852,-187.0383"/>
</g>
<!-- c:\Users\Mig\Desktop\Layer4&#45;Firewall\hardware\sim\blueprint\rule_engine\rule_engine.vhd -->
<g id="node15" class="node">
<title>c:\Users\Mig\Desktop\Layer4&#45;Firewall\hardware\sim\blueprint\rule_engine\rule_engine.vhd</title>
<polygon fill="#d3d3d3" stroke="#069302" points="607.6668,-108 492.4846,-108 492.4846,-104 488.4846,-104 488.4846,-100 492.4846,-100 492.4846,-80 488.4846,-80 488.4846,-76 492.4846,-76 492.4846,-72 607.6668,-72 607.6668,-108"/>
<polyline fill="none" stroke="#069302" points="492.4846,-104 496.4846,-104 496.4846,-100 492.4846,-100 "/>
<polyline fill="none" stroke="#069302" points="492.4846,-80 496.4846,-80 496.4846,-76 492.4846,-76 "/>
<text text-anchor="middle" x="550.0757" y="-85.8" font-family="Helvetica,sans-Serif" font-size="14.00" fill="#000000">rule_engine.vhd</text>
</g>
<!-- c:\Users\Mig\Desktop\Layer4&#45;Firewall\hardware\sim\blueprint\system_blueprint.vhd&#45;&gt;c:\Users\Mig\Desktop\Layer4&#45;Firewall\hardware\sim\blueprint\rule_engine\rule_engine.vhd -->
<g id="edge12" class="edge">
<title>c:\Users\Mig\Desktop\Layer4&#45;Firewall\hardware\sim\blueprint\system_blueprint.vhd&#45;&gt;c:\Users\Mig\Desktop\Layer4&#45;Firewall\hardware\sim\blueprint\rule_engine\rule_engine.vhd</title>
<path fill="none" stroke="#000000" d="M561.3953,-215.7678C567.0153,-205.6415 573.2051,-192.5789 576.0757,-180 579.6354,-164.401 579.6354,-159.599 576.0757,-144 573.9901,-134.8606 570.1522,-125.466 566.0538,-117.1276"/>
<polygon fill="#000000" stroke="#000000" points="569.1352,-115.4672 561.3953,-108.2322 562.934,-118.7147 569.1352,-115.4672"/>
</g>
<!-- c:\Users\Mig\Desktop\Layer4&#45;Firewall\hardware\sim\blueprint\system_blueprint_tb.vhd -->
<g id="node9" class="node">
<title>c:\Users\Mig\Desktop\Layer4&#45;Firewall\hardware\sim\blueprint\system_blueprint_tb.vhd</title>
<polygon fill="#d3d3d3" stroke="#069302" points="786.7814,-324 619.37,-324 619.37,-320 615.37,-320 615.37,-316 619.37,-316 619.37,-296 615.37,-296 615.37,-292 619.37,-292 619.37,-288 786.7814,-288 786.7814,-324"/>
<polyline fill="none" stroke="#069302" points="619.37,-320 623.37,-320 623.37,-316 619.37,-316 "/>
<polyline fill="none" stroke="#069302" points="619.37,-296 623.37,-296 623.37,-292 619.37,-292 "/>
<text text-anchor="middle" x="703.0757" y="-301.8" font-family="Helvetica,sans-Serif" font-size="14.00" fill="#000000">system_blueprint_tb.vhd</text>
</g>
<!-- c:\Users\Mig\Desktop\Layer4&#45;Firewall\hardware\sim\blueprint\system_blueprint_tb.vhd&#45;&gt;c:\Users\Mig\Desktop\Layer4&#45;Firewall\hardware\sim\blueprint\my_types_pkg.vhd -->
<g id="edge17" class="edge">
<title>c:\Users\Mig\Desktop\Layer4&#45;Firewall\hardware\sim\blueprint\system_blueprint_tb.vhd&#45;&gt;c:\Users\Mig\Desktop\Layer4&#45;Firewall\hardware\sim\blueprint\my_types_pkg.vhd</title>
<path fill="none" stroke="#000000" d="M726.3112,-287.8184C762.3202,-257.3726 824.269,-194.4513 792.0757,-144 764.1525,-100.2405 628.3903,-58.9761 540.5148,-36.2297"/>
<polygon fill="#000000" stroke="#000000" points="541.1329,-32.7751 530.577,-33.6832 539.3953,-39.556 541.1329,-32.7751"/>
</g>
<!-- c:\Users\Mig\Desktop\Layer4&#45;Firewall\hardware\sim\blueprint\system_blueprint_tb.vhd&#45;&gt;c:\Users\Mig\Desktop\Layer4&#45;Firewall\hardware\sim\blueprint\system_blueprint.vhd -->
<g id="edge16" class="edge">
<title>c:\Users\Mig\Desktop\Layer4&#45;Firewall\hardware\sim\blueprint\system_blueprint_tb.vhd&#45;&gt;c:\Users\Mig\Desktop\Layer4&#45;Firewall\hardware\sim\blueprint\system_blueprint.vhd</title>
<path fill="none" stroke="#000000" d="M664.4673,-287.8314C644.1864,-278.2874 619.1519,-266.5065 597.6786,-256.4013"/>
<polygon fill="#000000" stroke="#000000" points="598.9449,-253.1291 588.4064,-252.038 595.9643,-259.4629 598.9449,-253.1291"/>
</g>
<!-- c:\Users\Mig\Desktop\Layer4&#45;Firewall\hardware\sim\blueprint\cuckoo_hash\cuckoo_hash.vhd&#45;&gt;c:\Users\Mig\Desktop\Layer4&#45;Firewall\hardware\sim\blueprint\my_types_pkg.vhd -->
<g id="edge19" class="edge">
<title>c:\Users\Mig\Desktop\Layer4&#45;Firewall\hardware\sim\blueprint\cuckoo_hash\cuckoo_hash.vhd&#45;&gt;c:\Users\Mig\Desktop\Layer4&#45;Firewall\hardware\sim\blueprint\my_types_pkg.vhd</title>
<path fill="none" stroke="#000000" d="M496.7101,-143.8016C492.2021,-133.467 486.8142,-120.195 483.0757,-108 476.8446,-87.6744 471.9561,-64.1504 468.6989,-46.2509"/>
<polygon fill="#000000" stroke="#000000" points="472.1056,-45.4142 466.928,-36.1706 465.2112,-46.6254 472.1056,-45.4142"/>
</g>
<!-- c:\Users\Mig\Desktop\Layer4&#45;Firewall\hardware\sim\blueprint\cuckoo_hash\cuckoo_SRAM.vhd -->
<g id="node14" class="node">
<title>c:\Users\Mig\Desktop\Layer4&#45;Firewall\hardware\sim\blueprint\cuckoo_hash\cuckoo_SRAM.vhd</title>
<polygon fill="#d3d3d3" stroke="#069302" points="435.6023,-108 300.5491,-108 300.5491,-104 296.5491,-104 296.5491,-100 300.5491,-100 300.5491,-80 296.5491,-80 296.5491,-76 300.5491,-76 300.5491,-72 435.6023,-72 435.6023,-108"/>
<polyline fill="none" stroke="#069302" points="300.5491,-104 304.5491,-104 304.5491,-100 300.5491,-100 "/>
<polyline fill="none" stroke="#069302" points="300.5491,-80 304.5491,-80 304.5491,-76 300.5491,-76 "/>
<text text-anchor="middle" x="368.0757" y="-85.8" font-family="Helvetica,sans-Serif" font-size="14.00" fill="#000000">cuckoo_SRAM.vhd</text>
</g>
<!-- c:\Users\Mig\Desktop\Layer4&#45;Firewall\hardware\sim\blueprint\cuckoo_hash\cuckoo_hash.vhd&#45;&gt;c:\Users\Mig\Desktop\Layer4&#45;Firewall\hardware\sim\blueprint\cuckoo_hash\cuckoo_SRAM.vhd -->
<g id="edge18" class="edge">
<title>c:\Users\Mig\Desktop\Layer4&#45;Firewall\hardware\sim\blueprint\cuckoo_hash\cuckoo_hash.vhd&#45;&gt;c:\Users\Mig\Desktop\Layer4&#45;Firewall\hardware\sim\blueprint\cuckoo_hash\cuckoo_SRAM.vhd</title>
<path fill="none" stroke="#000000" d="M470.5048,-143.8314C452.6572,-134.4516 430.6983,-122.9112 411.6957,-112.9244"/>
<polygon fill="#000000" stroke="#000000" points="413.1158,-109.7168 402.6355,-108.1628 409.8593,-115.9132 413.1158,-109.7168"/>
</g>
<!-- c:\Users\Mig\Desktop\Layer4&#45;Firewall\hardware\sim\blueprint\cuckoo_hash\cuckoo_SRAM.vhd&#45;&gt;c:\Users\Mig\Desktop\Layer4&#45;Firewall\hardware\sim\blueprint\my_types_pkg.vhd -->
<g id="edge20" class="edge">
<title>c:\Users\Mig\Desktop\Layer4&#45;Firewall\hardware\sim\blueprint\cuckoo_hash\cuckoo_SRAM.vhd&#45;&gt;c:\Users\Mig\Desktop\Layer4&#45;Firewall\hardware\sim\blueprint\my_types_pkg.vhd</title>
<path fill="none" stroke="#000000" d="M392.3006,-71.8314C404.2385,-62.8779 418.8013,-51.9558 431.6817,-42.2955"/>
<polygon fill="#000000" stroke="#000000" points="433.9586,-44.9629 439.8586,-36.1628 429.7586,-39.3629 433.9586,-44.9629"/>
</g>
<!-- c:\Users\Mig\Desktop\Layer4&#45;Firewall\hardware\sim\blueprint\rule_engine\rule_engine.vhd&#45;&gt;c:\Users\Mig\Desktop\Layer4&#45;Firewall\hardware\sim\blueprint\my_types_pkg.vhd -->
<g id="edge21" class="edge">
<title>c:\Users\Mig\Desktop\Layer4&#45;Firewall\hardware\sim\blueprint\rule_engine\rule_engine.vhd&#45;&gt;c:\Users\Mig\Desktop\Layer4&#45;Firewall\hardware\sim\blueprint\my_types_pkg.vhd</title>
<path fill="none" stroke="#000000" d="M528.3743,-71.8314C517.8836,-63.0485 505.1302,-52.3712 493.7563,-42.8489"/>
<polygon fill="#000000" stroke="#000000" points="495.6846,-39.8986 485.7702,-36.1628 491.191,-45.2659 495.6846,-39.8986"/>
</g>
</g>
</svg>
