<?xml version="1.0" encoding="UTF-8" standalone="no"?>
<!DOCTYPE svg PUBLIC "-//W3C//DTD SVG 1.1//EN"
 "http://www.w3.org/Graphics/SVG/1.1/DTD/svg11.dtd">
<!-- Generated by graphviz version 2.40.1 (20161225.0304)
 -->
<!-- Title: state transitions Pages: 1 -->
<svg width="1070pt" height="270pt"
 viewBox="0.00 0.00 1070.32 270.00" xmlns="http://www.w3.org/2000/svg" xmlns:xlink="http://www.w3.org/1999/xlink">
<g id="graph0" class="graph" transform="scale(1 1) rotate(0) translate(4 266)">
<title>state transitions</title>
<polygon fill="#ffffff" stroke="transparent" points="-4,4 -4,-266 1066.324,-266 1066.324,4 -4,4"/>
<g id="clust1" class="cluster state regular">
<title>cluster_next_state</title>
<path fill="none" stroke="#000000" stroke-width="2" d="M20,-8C20,-8 954,-8 954,-8 960,-8 966,-14 966,-20 966,-20 966,-242 966,-242 966,-248 960,-254 954,-254 954,-254 20,-254 20,-254 14,-254 8,-248 8,-242 8,-242 8,-20 8,-20 8,-14 14,-8 20,-8"/>
<text text-anchor="start" x="459.8208" y="-235.2" font-family="Helvetica,sans-Serif" font-size="12.00" fill="#000000">next_state</text>
</g>
<!-- next_state -->
<!-- wait_start -->
<g id="node2" class="node state regular">
<title>wait_start</title>
<polygon fill="#ffffff" fill-opacity="0.003922" stroke="transparent" stroke-width="2" points="456.5,-216 383.5,-216 383.5,-180 456.5,-180 456.5,-216"/>
<text text-anchor="start" x="394.8314" y="-194.2" font-family="Helvetica,sans-Serif" font-size="12.00" fill="#000000">wait_start</text>
<path fill="none" stroke="#000000" stroke-width="2" d="M395.8333,-181C395.8333,-181 444.1667,-181 444.1667,-181 449.8333,-181 455.5,-186.6667 455.5,-192.3333 455.5,-192.3333 455.5,-203.6667 455.5,-203.6667 455.5,-209.3333 449.8333,-215 444.1667,-215 444.1667,-215 395.8333,-215 395.8333,-215 390.1667,-215 384.5,-209.3333 384.5,-203.6667 384.5,-203.6667 384.5,-192.3333 384.5,-192.3333 384.5,-186.6667 390.1667,-181 395.8333,-181"/>
</g>
<!-- wait_start&#45;&gt;wait_start -->
<g id="edge3" class="edge transition">
<title>wait_start&#45;&gt;wait_start</title>
<path fill="none" stroke="#000000" d="M456.5625,-202.875C468.75,-202.875 478.5,-201.25 478.5,-198 478.5,-195.7148 473.6797,-194.2331 466.5812,-193.5547"/>
<polygon fill="#000000" stroke="#000000" points="466.7033,-190.0568 456.5625,-193.125 466.4033,-197.0503 466.7033,-190.0568"/>
<text text-anchor="start" x="478.5" y="-195" font-family="Helvetica,sans-Serif" font-size="10.00" fill="#000000">vld_ad_hash = &#39;0&#39; and ok_cnt_firewall_next = 0 and ko_cnt_firewall_next = 0 &#160;&#160;</text>
</g>
<!-- wait_hash -->
<g id="node3" class="node state regular">
<title>wait_hash</title>
<polygon fill="#ffffff" fill-opacity="0.003922" stroke="transparent" stroke-width="2" points="458,-134 382,-134 382,-98 458,-98 458,-134"/>
<text text-anchor="start" x="392.9928" y="-112.2" font-family="Helvetica,sans-Serif" font-size="12.00" fill="#000000">wait_hash</text>
<path fill="none" stroke="#000000" stroke-width="2" d="M394.3333,-99C394.3333,-99 445.6667,-99 445.6667,-99 451.3333,-99 457,-104.6667 457,-110.3333 457,-110.3333 457,-121.6667 457,-121.6667 457,-127.3333 451.3333,-133 445.6667,-133 445.6667,-133 394.3333,-133 394.3333,-133 388.6667,-133 383,-127.3333 383,-121.6667 383,-121.6667 383,-110.3333 383,-110.3333 383,-104.6667 388.6667,-99 394.3333,-99"/>
</g>
<!-- wait_start&#45;&gt;wait_hash -->
<g id="edge4" class="edge transition">
<title>wait_start&#45;&gt;wait_hash</title>
<path fill="none" stroke="#000000" d="M420,-179.8015C420,-169.3976 420,-156.1215 420,-144.3768"/>
<polygon fill="#000000" stroke="#000000" points="423.5001,-144.1476 420,-134.1476 416.5001,-144.1476 423.5001,-144.1476"/>
<text text-anchor="start" x="420" y="-154" font-family="Helvetica,sans-Serif" font-size="10.00" fill="#000000">vld_ad_hash = &#39;0&#39; &#160;&#160;</text>
</g>
<!-- accept_and_forward -->
<g id="node4" class="node state regular">
<title>accept_and_forward</title>
<polygon fill="#ffffff" fill-opacity="0.003922" stroke="transparent" stroke-width="2" points="146,-52 16,-52 16,-16 146,-16 146,-52"/>
<text text-anchor="start" x="26.6496" y="-30.2" font-family="Helvetica,sans-Serif" font-size="12.00" fill="#000000">accept_and_forward</text>
<path fill="none" stroke="#000000" stroke-width="2" d="M28.3333,-17C28.3333,-17 133.6667,-17 133.6667,-17 139.3333,-17 145,-22.6667 145,-28.3333 145,-28.3333 145,-39.6667 145,-39.6667 145,-45.3333 139.3333,-51 133.6667,-51 133.6667,-51 28.3333,-51 28.3333,-51 22.6667,-51 17,-45.3333 17,-39.6667 17,-39.6667 17,-28.3333 17,-28.3333 17,-22.6667 22.6667,-17 28.3333,-17"/>
</g>
<!-- wait_start&#45;&gt;accept_and_forward -->
<g id="edge1" class="edge transition">
<title>wait_start&#45;&gt;accept_and_forward</title>
<path fill="none" stroke="#000000" d="M383.4738,-194.7641C308.6,-187.5065 140.9453,-167.8595 95.676,-134 74.3961,-118.0836 74.3327,-106.8082 68,-81 66.2971,-74.06 65.9448,-70.7618 68.0297,-61.9583"/>
<polygon fill="#000000" stroke="#000000" points="71.4734,-62.627 70.6608,-52.0633 64.7085,-60.8281 71.4734,-62.627"/>
<text text-anchor="start" x="95" y="-113" font-family="Helvetica,sans-Serif" font-size="10.00" fill="#000000">acc_deny_hash = &#39;1&#39; and vld_fifo = &#39;1&#39; and vld_ad_hash = &#39;1&#39; &#160;&#160;</text>
</g>
<!-- deny_and_delete -->
<g id="node5" class="node state regular">
<title>deny_and_delete</title>
<polygon fill="#ffffff" fill-opacity="0.003922" stroke="transparent" stroke-width="2" points="716,-52 602,-52 602,-16 716,-16 716,-52"/>
<text text-anchor="start" x="612.9764" y="-30.2" font-family="Helvetica,sans-Serif" font-size="12.00" fill="#000000">deny_and_delete</text>
<path fill="none" stroke="#000000" stroke-width="2" d="M614.3333,-17C614.3333,-17 703.6667,-17 703.6667,-17 709.3333,-17 715,-22.6667 715,-28.3333 715,-28.3333 715,-39.6667 715,-39.6667 715,-45.3333 709.3333,-51 703.6667,-51 703.6667,-51 614.3333,-51 614.3333,-51 608.6667,-51 603,-45.3333 603,-39.6667 603,-39.6667 603,-28.3333 603,-28.3333 603,-22.6667 608.6667,-17 614.3333,-17"/>
</g>
<!-- wait_start&#45;&gt;deny_and_delete -->
<g id="edge2" class="edge transition">
<title>wait_start&#45;&gt;deny_and_delete</title>
<path fill="none" stroke="#000000" d="M456.6683,-186.2954C522.376,-165.7119 664.8094,-122.8632 787.676,-98 815.4383,-92.382 895.3546,-102.3227 914,-81 940.0193,-51.2446 810.3455,-40.1957 726.3399,-36.1907"/>
<polygon fill="#000000" stroke="#000000" points="726.4837,-32.6937 716.3352,-35.7364 726.1661,-39.6865 726.4837,-32.6937"/>
<text text-anchor="start" x="787" y="-113" font-family="Helvetica,sans-Serif" font-size="10.00" fill="#000000">acc_deny_hash = &#39;0&#39; and vld_fifo = &#39;1&#39; and vld_ad_hash = &#39;1&#39; &#160;&#160;</text>
</g>
<!-- wait_hash&#45;&gt;wait_hash -->
<g id="edge7" class="edge transition">
<title>wait_hash&#45;&gt;wait_hash</title>
<path fill="none" stroke="#000000" d="M458.0841,-120.8738C470.3101,-120.8238 480,-119.1992 480,-116 480,-113.7505 475.2094,-112.2796 468.1151,-111.587"/>
<polygon fill="#000000" stroke="#000000" points="468.2342,-108.0889 458.0841,-111.1262 467.9129,-115.0815 468.2342,-108.0889"/>
<text text-anchor="start" x="480" y="-113" font-family="Helvetica,sans-Serif" font-size="10.00" fill="#000000">vld_ad_hash = &#39;0&#39; &#160;&#160;</text>
</g>
<!-- wait_hash&#45;&gt;accept_and_forward -->
<g id="edge5" class="edge transition">
<title>wait_hash&#45;&gt;accept_and_forward</title>
<path fill="none" stroke="#000000" d="M381.8766,-108.3042C362.7708,-104.6947 339.2374,-100.621 318,-98 291.5422,-94.7347 96.8464,-100.5068 78.676,-81 73.962,-75.9392 72.6198,-69.0859 72.935,-62.1789"/>
<polygon fill="#000000" stroke="#000000" points="76.4071,-62.6233 74.3829,-52.2236 69.48,-61.6157 76.4071,-62.6233"/>
<text text-anchor="start" x="78" y="-72" font-family="Helvetica,sans-Serif" font-size="10.00" fill="#000000">acc_deny_hash = &#39;1&#39; and vld_fifo = &#39;1&#39; and vld_ad_hash = &#39;1&#39; &#160;&#160;</text>
</g>
<!-- wait_hash&#45;&gt;deny_and_delete -->
<g id="edge6" class="edge transition">
<title>wait_hash&#45;&gt;deny_and_delete</title>
<path fill="none" stroke="#000000" d="M458.0992,-112.4867C508.2187,-107.3327 593.0924,-96.6106 620,-81 628.6211,-75.9984 636.1693,-68.333 642.2702,-60.6344"/>
<polygon fill="#000000" stroke="#000000" points="645.2213,-62.5283 648.3045,-52.392 639.5732,-58.3933 645.2213,-62.5283"/>
<text text-anchor="start" x="634" y="-72" font-family="Helvetica,sans-Serif" font-size="10.00" fill="#000000">acc_deny_hash = &#39;0&#39; and vld_fifo = &#39;1&#39; and vld_ad_hash = &#39;1&#39; &#160;&#160;</text>
</g>
<!-- accept_and_forward&#45;&gt;wait_hash -->
<g id="edge8" class="edge transition">
<title>accept_and_forward&#45;&gt;wait_hash</title>
<path fill="none" stroke="#000000" d="M146.3053,-38.6087C215.0181,-44.1175 318.2082,-54.4519 355,-69 368.4155,-74.3047 381.6174,-83.0125 392.5817,-91.5006"/>
<polygon fill="#000000" stroke="#000000" points="390.5166,-94.3316 400.4965,-97.8886 394.913,-88.8844 390.5166,-94.3316"/>
<text text-anchor="start" x="377" y="-72" font-family="Helvetica,sans-Serif" font-size="10.00" fill="#000000">end_of_packet = &#39;1&#39; &#160;&#160;</text>
</g>
<!-- accept_and_forward&#45;&gt;accept_and_forward -->
<g id="edge9" class="edge transition">
<title>accept_and_forward&#45;&gt;accept_and_forward</title>
<path fill="none" stroke="#000000" d="M146.2588,-38.6581C158.972,-38.1171 168,-36.5645 168,-34 168,-32.1969 163.5367,-30.8939 156.4673,-30.0912"/>
<polygon fill="#000000" stroke="#000000" points="156.4882,-26.5834 146.2588,-29.3419 155.9757,-33.5646 156.4882,-26.5834"/>
<text text-anchor="start" x="168" y="-31" font-family="Helvetica,sans-Serif" font-size="10.00" fill="#000000">end_of_packet = &#39;0&#39; &#160;&#160;</text>
</g>
<!-- deny_and_delete&#45;&gt;wait_hash -->
<g id="edge10" class="edge transition">
<title>deny_and_delete&#45;&gt;wait_hash</title>
<path fill="none" stroke="#000000" d="M601.9997,-45.6829C576.4833,-51.5836 546.2328,-59.5146 519.7,-69 500.6955,-75.7941 480.4278,-84.9675 463.1634,-93.4065"/>
<polygon fill="#000000" stroke="#000000" points="461.31,-90.419 453.9082,-97.9996 464.4217,-96.6893 461.31,-90.419"/>
<text text-anchor="start" x="519" y="-72" font-family="Helvetica,sans-Serif" font-size="10.00" fill="#000000">end_of_packet = &#39;1&#39; &#160;&#160;</text>
</g>
<!-- deny_and_delete&#45;&gt;deny_and_delete -->
<g id="edge11" class="edge transition">
<title>deny_and_delete&#45;&gt;deny_and_delete</title>
<path fill="none" stroke="#000000" d="M716.1662,-38.7438C728.7992,-38.2981 738,-36.7168 738,-34 738,-32.0898 733.4513,-30.7409 726.3591,-29.9534"/>
<polygon fill="#000000" stroke="#000000" points="726.3817,-26.4469 716.1662,-29.2562 725.904,-33.4306 726.3817,-26.4469"/>
<text text-anchor="start" x="738" y="-31" font-family="Helvetica,sans-Serif" font-size="10.00" fill="#000000">end_of_packet = &#39;0&#39; &#160;&#160;</text>
</g>
</g>
</svg>
