<?xml version="1.0" encoding="UTF-8" standalone="no"?>
<!DOCTYPE svg PUBLIC "-//W3C//DTD SVG 1.1//EN"
 "http://www.w3.org/Graphics/SVG/1.1/DTD/svg11.dtd">
<!-- Generated by graphviz version 2.40.1 (20161225.0304)
 -->
<!-- Title: state transitions Pages: 1 -->
<svg width="1803pt" height="540pt"
 viewBox="0.00 0.00 1803.00 540.00" xmlns="http://www.w3.org/2000/svg" xmlns:xlink="http://www.w3.org/1999/xlink">
<g id="graph0" class="graph" transform="scale(1 1) rotate(0) translate(4 536)">
<title>state transitions</title>
<polygon fill="#ffffff" stroke="transparent" points="-4,4 -4,-536 1799,-536 1799,4 -4,4"/>
<g id="clust1" class="cluster state regular">
<title>cluster_next_state</title>
<path fill="none" stroke="#000000" stroke-width="2" d="M20,-8C20,-8 1775,-8 1775,-8 1781,-8 1787,-14 1787,-20 1787,-20 1787,-512 1787,-512 1787,-518 1781,-524 1775,-524 1775,-524 20,-524 20,-524 14,-524 8,-518 8,-512 8,-512 8,-20 8,-20 8,-14 14,-8 20,-8"/>
<text text-anchor="start" x="870.3208" y="-505.2" font-family="Helvetica,sans-Serif" font-size="12.00" fill="#000000">next_state</text>
</g>
<!-- next_state -->
<!-- command_state -->
<g id="node2" class="node state regular">
<title>command_state</title>
<polygon fill="#ffffff" fill-opacity="0.003922" stroke="transparent" stroke-width="2" points="670.5,-486 563.5,-486 563.5,-450 670.5,-450 670.5,-486"/>
<text text-anchor="start" x="574.8226" y="-464.2" font-family="Helvetica,sans-Serif" font-size="12.00" fill="#000000">command_state</text>
<path fill="none" stroke="#000000" stroke-width="2" d="M575.8333,-451C575.8333,-451 658.1667,-451 658.1667,-451 663.8333,-451 669.5,-456.6667 669.5,-462.3333 669.5,-462.3333 669.5,-473.6667 669.5,-473.6667 669.5,-479.3333 663.8333,-485 658.1667,-485 658.1667,-485 575.8333,-485 575.8333,-485 570.1667,-485 564.5,-479.3333 564.5,-473.6667 564.5,-473.6667 564.5,-462.3333 564.5,-462.3333 564.5,-456.6667 570.1667,-451 575.8333,-451"/>
</g>
<!-- rdy_key -->
<g id="node3" class="node state regular">
<title>rdy_key</title>
<polygon fill="#ffffff" fill-opacity="0.003922" stroke="transparent" stroke-width="2" points="432,-404 368,-404 368,-368 432,-368 432,-404"/>
<text text-anchor="start" x="378.9964" y="-382.2" font-family="Helvetica,sans-Serif" font-size="12.00" fill="#000000">rdy_key</text>
<path fill="none" stroke="#000000" stroke-width="2" d="M380.3333,-369C380.3333,-369 419.6667,-369 419.6667,-369 425.3333,-369 431,-374.6667 431,-380.3333 431,-380.3333 431,-391.6667 431,-391.6667 431,-397.3333 425.3333,-403 419.6667,-403 419.6667,-403 380.3333,-403 380.3333,-403 374.6667,-403 369,-397.3333 369,-391.6667 369,-391.6667 369,-380.3333 369,-380.3333 369,-374.6667 374.6667,-369 380.3333,-369"/>
</g>
<!-- command_state&#45;&gt;rdy_key -->
<g id="edge3" class="edge transition">
<title>command_state&#45;&gt;rdy_key</title>
<path fill="none" stroke="#000000" d="M563.072,-464.4917C511.7864,-460.1224 439.3489,-450.9341 417.713,-433 411.8052,-428.103 407.8659,-421.0189 405.24,-413.8301"/>
<polygon fill="#000000" stroke="#000000" points="408.5776,-412.7735 402.4116,-404.1578 401.859,-414.7382 408.5776,-412.7735"/>
<text text-anchor="start" x="417" y="-424" font-family="Helvetica,sans-Serif" font-size="10.00" fill="#000000">insert_flag_next = &#39;1&#39; &#160;&#160;</text>
</g>
<!-- flush_memory -->
<g id="node4" class="node state regular">
<title>flush_memory</title>
<polygon fill="#ffffff" fill-opacity="0.003922" stroke="transparent" stroke-width="2" points="303.5,-404 206.5,-404 206.5,-368 303.5,-368 303.5,-404"/>
<text text-anchor="start" x="217.832" y="-382.2" font-family="Helvetica,sans-Serif" font-size="12.00" fill="#000000">flush_memory</text>
<path fill="none" stroke="#000000" stroke-width="2" d="M218.8333,-369C218.8333,-369 291.1667,-369 291.1667,-369 296.8333,-369 302.5,-374.6667 302.5,-380.3333 302.5,-380.3333 302.5,-391.6667 302.5,-391.6667 302.5,-397.3333 296.8333,-403 291.1667,-403 291.1667,-403 218.8333,-403 218.8333,-403 213.1667,-403 207.5,-397.3333 207.5,-391.6667 207.5,-391.6667 207.5,-380.3333 207.5,-380.3333 207.5,-374.6667 213.1667,-369 218.8333,-369"/>
</g>
<!-- command_state&#45;&gt;flush_memory -->
<g id="edge1" class="edge transition">
<title>command_state&#45;&gt;flush_memory</title>
<path fill="none" stroke="#000000" d="M563.3956,-467.0768C462.4096,-464.7791 252.0803,-457.1216 230.042,-433 224.6964,-427.1491 225.7356,-419.9421 229.4808,-412.9447"/>
<polygon fill="#000000" stroke="#000000" points="232.631,-414.5393 235.3952,-404.3114 226.8561,-410.5831 232.631,-414.5393"/>
<text text-anchor="start" x="230" y="-424" font-family="Helvetica,sans-Serif" font-size="10.00" fill="#000000">flush_flag_next = &#39;1&#39; &#160;&#160;</text>
</g>
<!-- rdy_hash_matching -->
<g id="node5" class="node state regular">
<title>rdy_hash_matching</title>
<polygon fill="#ffffff" fill-opacity="0.003922" stroke="transparent" stroke-width="2" points="1174,-404 1048,-404 1048,-368 1174,-368 1174,-404"/>
<text text-anchor="start" x="1058.6524" y="-382.2" font-family="Helvetica,sans-Serif" font-size="12.00" fill="#000000">rdy_hash_matching</text>
<path fill="none" stroke="#000000" stroke-width="2" d="M1060.3333,-369C1060.3333,-369 1161.6667,-369 1161.6667,-369 1167.3333,-369 1173,-374.6667 1173,-380.3333 1173,-380.3333 1173,-391.6667 1173,-391.6667 1173,-397.3333 1167.3333,-403 1161.6667,-403 1161.6667,-403 1060.3333,-403 1060.3333,-403 1054.6667,-403 1049,-397.3333 1049,-391.6667 1049,-391.6667 1049,-380.3333 1049,-380.3333 1049,-374.6667 1054.6667,-369 1060.3333,-369"/>
</g>
<!-- command_state&#45;&gt;rdy_hash_matching -->
<g id="edge4" class="edge transition">
<title>command_state&#45;&gt;rdy_hash_matching</title>
<path fill="none" stroke="#000000" d="M670.547,-463.0218C728.0005,-457.3083 821.8151,-446.9045 902,-433 947.4357,-425.1212 997.8876,-413.8488 1037.8378,-404.3184"/>
<polygon fill="#000000" stroke="#000000" points="1038.8525,-407.6743 1047.7589,-401.9361 1037.2181,-400.8678 1038.8525,-407.6743"/>
<text text-anchor="start" x="962" y="-424" font-family="Helvetica,sans-Serif" font-size="10.00" fill="#000000">set_rule = &#39;0&#39; &#160;&#160;</text>
</g>
<!-- rdy_delete -->
<g id="node16" class="node state regular">
<title>rdy_delete</title>
<polygon fill="#ffffff" fill-opacity="0.003922" stroke="transparent" stroke-width="2" points="774,-404 696,-404 696,-368 774,-368 774,-404"/>
<text text-anchor="start" x="706.9914" y="-382.2" font-family="Helvetica,sans-Serif" font-size="12.00" fill="#000000">rdy_delete</text>
<path fill="none" stroke="#000000" stroke-width="2" d="M708.3333,-369C708.3333,-369 761.6667,-369 761.6667,-369 767.3333,-369 773,-374.6667 773,-380.3333 773,-380.3333 773,-391.6667 773,-391.6667 773,-397.3333 767.3333,-403 761.6667,-403 761.6667,-403 708.3333,-403 708.3333,-403 702.6667,-403 697,-397.3333 697,-391.6667 697,-391.6667 697,-380.3333 697,-380.3333 697,-374.6667 702.6667,-369 708.3333,-369"/>
</g>
<!-- command_state&#45;&gt;rdy_delete -->
<g id="edge2" class="edge transition">
<title>command_state&#45;&gt;rdy_delete</title>
<path fill="none" stroke="#000000" d="M643.188,-449.8015C659.9928,-438.1237 682.0048,-422.8272 700.2629,-410.1393"/>
<polygon fill="#000000" stroke="#000000" points="702.6706,-412.7284 708.8852,-404.1476 698.676,-406.98 702.6706,-412.7284"/>
<text text-anchor="start" x="683" y="-424" font-family="Helvetica,sans-Serif" font-size="10.00" fill="#000000">delete_flag_next = &#39;1&#39; &#160;&#160;</text>
</g>
<!-- rdy_key&#45;&gt;command_state -->
<g id="edge5" class="edge transition">
<title>rdy_key&#45;&gt;command_state</title>
<path fill="none" stroke="#000000" d="M432.0315,-393.9191C456.2533,-400.2666 490.1512,-409.9227 519,-421 537.2815,-428.0197 556.8464,-437.0721 573.6496,-445.3555"/>
<polygon fill="#000000" stroke="#000000" points="572.1645,-448.526 582.6749,-449.8605 575.2907,-442.2628 572.1645,-448.526"/>
<text text-anchor="start" x="546" y="-424" font-family="Helvetica,sans-Serif" font-size="10.00" fill="#000000">insert_flag_next = &#39;0&#39; &#160;&#160;</text>
</g>
<!-- lookup_hash1 -->
<g id="node6" class="node state regular">
<title>lookup_hash1</title>
<polygon fill="#ffffff" fill-opacity="0.003922" stroke="transparent" stroke-width="2" points="210,-322 114,-322 114,-286 210,-286 210,-322"/>
<text text-anchor="start" x="124.65" y="-300.2" font-family="Helvetica,sans-Serif" font-size="12.00" fill="#000000">lookup_hash1</text>
<path fill="none" stroke="#000000" stroke-width="2" d="M126.3333,-287C126.3333,-287 197.6667,-287 197.6667,-287 203.3333,-287 209,-292.6667 209,-298.3333 209,-298.3333 209,-309.6667 209,-309.6667 209,-315.3333 203.3333,-321 197.6667,-321 197.6667,-321 126.3333,-321 126.3333,-321 120.6667,-321 115,-315.3333 115,-309.6667 115,-309.6667 115,-298.3333 115,-298.3333 115,-292.6667 120.6667,-287 126.3333,-287"/>
</g>
<!-- rdy_key&#45;&gt;lookup_hash1 -->
<g id="edge6" class="edge transition">
<title>rdy_key&#45;&gt;lookup_hash1</title>
<path fill="none" stroke="#000000" d="M367.8323,-378.5167C351.9844,-375.0018 332.5537,-370.9472 315,-368 284.8791,-362.9428 202.4108,-370.1458 178.614,-351 172.6801,-346.2259 168.8626,-339.1803 166.4076,-331.9889"/>
<polygon fill="#000000" stroke="#000000" points="169.7821,-331.0592 163.8337,-322.2919 163.0164,-332.8551 169.7821,-331.0592"/>
<text text-anchor="start" x="178" y="-342" font-family="Helvetica,sans-Serif" font-size="10.00" fill="#000000">vld_firewall_hash = &#39;1&#39; &#160;&#160;</text>
</g>
<!-- flush_memory&#45;&gt;command_state -->
<g id="edge7" class="edge transition">
<title>flush_memory&#45;&gt;command_state</title>
<path fill="none" stroke="#000000" d="M302.8334,-404.0034C337.2158,-416.3204 384.9162,-432.1445 428,-442 469.1704,-451.4178 516.2176,-457.9042 553.0731,-462.0429"/>
<polygon fill="#000000" stroke="#000000" points="552.8634,-465.5408 563.1846,-463.1485 553.6243,-458.5822 552.8634,-465.5408"/>
<text text-anchor="middle" x="391.3895" y="-424" font-family="Helvetica,sans-Serif" font-size="10.00" fill="#000000"> </text>
</g>
<!-- rdy_hash_matching&#45;&gt;command_state -->
<g id="edge8" class="edge transition">
<title>rdy_hash_matching&#45;&gt;command_state</title>
<path fill="none" stroke="#000000" d="M1087.1271,-404.1064C1072.1272,-414.4566 1051.9071,-426.6141 1032,-433 968.4136,-453.3974 780.5322,-462.5814 680.8263,-466.1145"/>
<polygon fill="#000000" stroke="#000000" points="680.4546,-462.6252 670.5815,-466.4687 680.6965,-469.621 680.4546,-462.6252"/>
<text text-anchor="start" x="1058" y="-424" font-family="Helvetica,sans-Serif" font-size="10.00" fill="#000000">set_rule = &#39;1&#39; &#160;&#160;</text>
</g>
<!-- search_hash1 -->
<g id="node12" class="node state regular">
<title>search_hash1</title>
<polygon fill="#ffffff" fill-opacity="0.003922" stroke="transparent" stroke-width="2" points="1263.5,-322 1166.5,-322 1166.5,-286 1263.5,-286 1263.5,-322"/>
<text text-anchor="start" x="1177.8194" y="-300.2" font-family="Helvetica,sans-Serif" font-size="12.00" fill="#000000">search_hash1</text>
<path fill="none" stroke="#000000" stroke-width="2" d="M1178.8333,-287C1178.8333,-287 1251.1667,-287 1251.1667,-287 1256.8333,-287 1262.5,-292.6667 1262.5,-298.3333 1262.5,-298.3333 1262.5,-309.6667 1262.5,-309.6667 1262.5,-315.3333 1256.8333,-321 1251.1667,-321 1251.1667,-321 1178.8333,-321 1178.8333,-321 1173.1667,-321 1167.5,-315.3333 1167.5,-309.6667 1167.5,-309.6667 1167.5,-298.3333 1167.5,-298.3333 1167.5,-292.6667 1173.1667,-287 1178.8333,-287"/>
</g>
<!-- rdy_hash_matching&#45;&gt;search_hash1 -->
<g id="edge9" class="edge transition">
<title>rdy_hash_matching&#45;&gt;search_hash1</title>
<path fill="none" stroke="#000000" d="M1134.081,-367.8015C1148.7573,-356.2298 1167.94,-341.105 1183.9446,-328.486"/>
<polygon fill="#000000" stroke="#000000" points="1186.2979,-331.0876 1191.9835,-322.1476 1181.9638,-325.5907 1186.2979,-331.0876"/>
<text text-anchor="start" x="1169" y="-342" font-family="Helvetica,sans-Serif" font-size="10.00" fill="#000000">vld_hdr = &#39;1&#39; &#160;&#160;</text>
</g>
<!-- is_occupied -->
<g id="node7" class="node state regular">
<title>is_occupied</title>
<polygon fill="#ffffff" fill-opacity="0.003922" stroke="transparent" stroke-width="2" points="211.5,-240 126.5,-240 126.5,-204 211.5,-204 211.5,-240"/>
<text text-anchor="start" x="137.8248" y="-218.2" font-family="Helvetica,sans-Serif" font-size="12.00" fill="#000000">is_occupied</text>
<path fill="none" stroke="#000000" stroke-width="2" d="M138.8333,-205C138.8333,-205 199.1667,-205 199.1667,-205 204.8333,-205 210.5,-210.6667 210.5,-216.3333 210.5,-216.3333 210.5,-227.6667 210.5,-227.6667 210.5,-233.3333 204.8333,-239 199.1667,-239 199.1667,-239 138.8333,-239 138.8333,-239 133.1667,-239 127.5,-233.3333 127.5,-227.6667 127.5,-227.6667 127.5,-216.3333 127.5,-216.3333 127.5,-210.6667 133.1667,-205 138.8333,-205"/>
</g>
<!-- lookup_hash1&#45;&gt;is_occupied -->
<g id="edge10" class="edge transition">
<title>lookup_hash1&#45;&gt;is_occupied</title>
<path fill="none" stroke="#000000" d="M163.5535,-285.8015C164.4417,-275.3976 165.575,-262.1215 166.5776,-250.3768"/>
<polygon fill="#000000" stroke="#000000" points="170.0875,-250.4091 167.4508,-240.1476 163.1128,-249.8136 170.0875,-250.4091"/>
<text text-anchor="middle" x="166.3895" y="-260" font-family="Helvetica,sans-Serif" font-size="10.00" fill="#000000"> </text>
</g>
<!-- is_occupied&#45;&gt;rdy_key -->
<g id="edge11" class="edge transition">
<title>is_occupied&#45;&gt;rdy_key</title>
<path fill="none" stroke="#000000" d="M211.6697,-228.1456C246.851,-234.4525 291,-245.7946 291,-263 291,-345 291,-345 291,-345 291,-359.895 327.1085,-371.2262 357.7603,-378.1616"/>
<polygon fill="#000000" stroke="#000000" points="357.373,-381.6584 367.8859,-380.3439 358.8478,-374.8155 357.373,-381.6584"/>
<text text-anchor="start" x="291" y="-301" font-family="Helvetica,sans-Serif" font-size="10.00" fill="#000000">eq_key_next = &#39;1&#39; &#160;&#160;</text>
</g>
<!-- remember_and_replace -->
<g id="node9" class="node state regular">
<title>remember_and_replace</title>
<polygon fill="#ffffff" fill-opacity="0.003922" stroke="transparent" stroke-width="2" points="211.5,-146 62.5,-146 62.5,-110 211.5,-110 211.5,-146"/>
<text text-anchor="start" x="73.8214" y="-124.2" font-family="Helvetica,sans-Serif" font-size="12.00" fill="#000000">remember_and_replace</text>
<path fill="none" stroke="#000000" stroke-width="2" d="M74.8333,-111C74.8333,-111 199.1667,-111 199.1667,-111 204.8333,-111 210.5,-116.6667 210.5,-122.3333 210.5,-122.3333 210.5,-133.6667 210.5,-133.6667 210.5,-139.3333 204.8333,-145 199.1667,-145 199.1667,-145 74.8333,-145 74.8333,-145 69.1667,-145 63.5,-139.3333 63.5,-133.6667 63.5,-133.6667 63.5,-122.3333 63.5,-122.3333 63.5,-116.6667 69.1667,-111 74.8333,-111"/>
</g>
<!-- is_occupied&#45;&gt;remember_and_replace -->
<g id="edge12" class="edge transition">
<title>is_occupied&#45;&gt;remember_and_replace</title>
<path fill="none" stroke="#000000" d="M126.2587,-207.9095C117.0427,-202.8065 108.452,-195.9985 103.04,-187 97.5424,-177.8592 99.0325,-172.8852 103.04,-163 104.2806,-159.9399 105.9313,-156.9999 107.8385,-154.2144"/>
<polygon fill="#000000" stroke="#000000" points="110.6228,-156.3373 114.1754,-146.3559 105.1737,-151.9433 110.6228,-156.3373"/>
<text text-anchor="start" x="103" y="-172" font-family="Helvetica,sans-Serif" font-size="10.00" fill="#000000">exits_cuckoo_next = &#39;1&#39; &#160;&#160;</text>
</g>
<!-- insert_key -->
<g id="node10" class="node state regular">
<title>insert_key</title>
<polygon fill="#ffffff" fill-opacity="0.003922" stroke="transparent" stroke-width="2" points="322,-146 246,-146 246,-110 322,-110 322,-146"/>
<text text-anchor="start" x="256.6622" y="-124.2" font-family="Helvetica,sans-Serif" font-size="12.00" fill="#000000">insert_key</text>
<path fill="none" stroke="#000000" stroke-width="2" d="M258.3333,-111C258.3333,-111 309.6667,-111 309.6667,-111 315.3333,-111 321,-116.6667 321,-122.3333 321,-122.3333 321,-133.6667 321,-133.6667 321,-139.3333 315.3333,-145 309.6667,-145 309.6667,-145 258.3333,-145 258.3333,-145 252.6667,-145 247,-139.3333 247,-133.6667 247,-133.6667 247,-122.3333 247,-122.3333 247,-116.6667 252.6667,-111 258.3333,-111"/>
</g>
<!-- is_occupied&#45;&gt;insert_key -->
<g id="edge13" class="edge transition">
<title>is_occupied&#45;&gt;insert_key</title>
<path fill="none" stroke="#000000" d="M194.1438,-203.8135C201.2899,-198.5004 209.0237,-192.6111 216,-187 229.4874,-176.1518 244.0308,-163.6484 256.1927,-152.9519"/>
<polygon fill="#000000" stroke="#000000" points="258.6334,-155.4658 263.8058,-146.2193 253.9962,-150.2221 258.6334,-155.4658"/>
<text text-anchor="start" x="244" y="-178" font-family="Helvetica,sans-Serif" font-size="10.00" fill="#000000">not (eq_key_next = &#39;1&#39;) &#160;&#160;</text>
<text text-anchor="start" x="244" y="-166" font-family="Helvetica,sans-Serif" font-size="10.00" fill="#000000">not (exits_cuckoo_next = &#39;1&#39;) &#160;&#160;</text>
</g>
<!-- lookup_hash2 -->
<g id="node8" class="node state regular">
<title>lookup_hash2</title>
<polygon fill="#ffffff" fill-opacity="0.003922" stroke="transparent" stroke-width="2" points="122,-52 26,-52 26,-16 122,-16 122,-52"/>
<text text-anchor="start" x="36.65" y="-30.2" font-family="Helvetica,sans-Serif" font-size="12.00" fill="#000000">lookup_hash2</text>
<path fill="none" stroke="#000000" stroke-width="2" d="M38.3333,-17C38.3333,-17 109.6667,-17 109.6667,-17 115.3333,-17 121,-22.6667 121,-28.3333 121,-28.3333 121,-39.6667 121,-39.6667 121,-45.3333 115.3333,-51 109.6667,-51 109.6667,-51 38.3333,-51 38.3333,-51 32.6667,-51 27,-45.3333 27,-39.6667 27,-39.6667 27,-28.3333 27,-28.3333 27,-22.6667 32.6667,-17 38.3333,-17"/>
</g>
<!-- lookup_hash2&#45;&gt;is_occupied -->
<g id="edge14" class="edge transition">
<title>lookup_hash2&#45;&gt;is_occupied</title>
<path fill="none" stroke="#000000" d="M63.2893,-52.1365C51.3494,-74.8682 35.4195,-114.6504 49.221,-146 63.1911,-177.7325 87.9128,-185.9888 104,-196 105.6494,-197.0265 110.5295,-199.162 116.9236,-201.7886"/>
<polygon fill="#000000" stroke="#000000" points="115.8367,-205.1241 126.4201,-205.6167 118.4539,-198.6317 115.8367,-205.1241"/>
<text text-anchor="middle" x="51.3895" y="-125" font-family="Helvetica,sans-Serif" font-size="10.00" fill="#000000"> </text>
</g>
<!-- remember_and_replace&#45;&gt;lookup_hash1 -->
<g id="edge16" class="edge transition">
<title>remember_and_replace&#45;&gt;lookup_hash1</title>
<path fill="none" stroke="#000000" d="M105.2613,-146.0733C72.2905,-167.3149 28.2077,-204.2216 49.057,-240 61.2644,-260.9485 83.1573,-275.5926 104.4395,-285.5316"/>
<polygon fill="#000000" stroke="#000000" points="103.2502,-288.8317 113.8141,-289.64 106.06,-282.4204 103.2502,-288.8317"/>
<text text-anchor="start" x="50" y="-219" font-family="Helvetica,sans-Serif" font-size="10.00" fill="#000000">flip_next = &#39;1&#39; &#160;&#160;</text>
</g>
<!-- remember_and_replace&#45;&gt;lookup_hash2 -->
<g id="edge17" class="edge transition">
<title>remember_and_replace&#45;&gt;lookup_hash2</title>
<path fill="none" stroke="#000000" d="M114.6163,-109.7083C109.3177,-104.669 103.9962,-98.9424 99.807,-93 93.0703,-83.4439 87.531,-71.8495 83.3349,-61.4767"/>
<polygon fill="#000000" stroke="#000000" points="86.5599,-60.1106 79.7283,-52.0125 80.0188,-62.6033 86.5599,-60.1106"/>
<text text-anchor="start" x="99" y="-84" font-family="Helvetica,sans-Serif" font-size="10.00" fill="#000000">not (MAX_next = MAX_ITER) &#160;&#160;</text>
<text text-anchor="start" x="99" y="-72" font-family="Helvetica,sans-Serif" font-size="10.00" fill="#000000">not (flip_next = &#39;1&#39;) &#160;&#160;</text>
</g>
<!-- ERROR -->
<g id="node11" class="node state regular">
<title>ERROR</title>
<polygon fill="#ffffff" fill-opacity="0.003922" stroke="transparent" stroke-width="2" points="298.5,-52 233.5,-52 233.5,-16 298.5,-16 298.5,-52"/>
<text text-anchor="start" x="244.837" y="-30.2" font-family="Helvetica,sans-Serif" font-size="12.00" fill="#000000">ERROR</text>
<path fill="none" stroke="#000000" stroke-width="2" d="M245.8333,-17C245.8333,-17 286.1667,-17 286.1667,-17 291.8333,-17 297.5,-22.6667 297.5,-28.3333 297.5,-28.3333 297.5,-39.6667 297.5,-39.6667 297.5,-45.3333 291.8333,-51 286.1667,-51 286.1667,-51 245.8333,-51 245.8333,-51 240.1667,-51 234.5,-45.3333 234.5,-39.6667 234.5,-39.6667 234.5,-28.3333 234.5,-28.3333 234.5,-22.6667 240.1667,-17 245.8333,-17"/>
</g>
<!-- remember_and_replace&#45;&gt;ERROR -->
<g id="edge15" class="edge transition">
<title>remember_and_replace&#45;&gt;ERROR</title>
<path fill="none" stroke="#000000" d="M211.5125,-111.0922C221.8837,-106.4436 231.7837,-100.527 240,-93 249.0365,-84.7216 255.0991,-72.7328 259.0788,-61.7213"/>
<polygon fill="#000000" stroke="#000000" points="262.4695,-62.6087 262.1736,-52.018 255.8004,-60.4817 262.4695,-62.6087"/>
<text text-anchor="start" x="256" y="-78" font-family="Helvetica,sans-Serif" font-size="10.00" fill="#000000">MAX_next = MAX_ITER &#160;&#160;</text>
</g>
<!-- insert_key&#45;&gt;rdy_key -->
<g id="edge18" class="edge transition">
<title>insert_key&#45;&gt;rdy_key</title>
<path fill="none" stroke="#000000" d="M322.3042,-135.9199C356.0925,-144.0419 400,-157.8883 400,-175 400,-345 400,-345 400,-345 400,-349.0484 400,-353.3216 400,-357.52"/>
<polygon fill="#000000" stroke="#000000" points="396.5001,-357.6312 400,-367.6312 403.5001,-357.6313 396.5001,-357.6312"/>
<text text-anchor="middle" x="401.3895" y="-260" font-family="Helvetica,sans-Serif" font-size="10.00" fill="#000000"> </text>
</g>
<!-- ERROR&#45;&gt;ERROR -->
<g id="edge19" class="edge transition">
<title>ERROR&#45;&gt;ERROR</title>
<path fill="none" stroke="#000000" d="M298.7219,-38.8676C310.6932,-38.9995 320.5,-37.377 320.5,-34 320.5,-31.6783 315.8647,-30.1859 309.0776,-29.5228"/>
<polygon fill="#000000" stroke="#000000" points="308.8467,-26.0117 298.7219,-29.1324 308.583,-33.0067 308.8467,-26.0117"/>
<text text-anchor="middle" x="321.8895" y="-31" font-family="Helvetica,sans-Serif" font-size="10.00" fill="#000000"> </text>
</g>
<!-- matching -->
<g id="node14" class="node state regular">
<title>matching</title>
<polygon fill="#ffffff" fill-opacity="0.003922" stroke="transparent" stroke-width="2" points="1449,-240 1379,-240 1379,-204 1449,-204 1449,-240"/>
<text text-anchor="start" x="1389.6622" y="-218.2" font-family="Helvetica,sans-Serif" font-size="12.00" fill="#000000">matching</text>
<path fill="none" stroke="#000000" stroke-width="2" d="M1391.3333,-205C1391.3333,-205 1436.6667,-205 1436.6667,-205 1442.3333,-205 1448,-210.6667 1448,-216.3333 1448,-216.3333 1448,-227.6667 1448,-227.6667 1448,-233.3333 1442.3333,-239 1436.6667,-239 1436.6667,-239 1391.3333,-239 1391.3333,-239 1385.6667,-239 1380,-233.3333 1380,-227.6667 1380,-227.6667 1380,-216.3333 1380,-216.3333 1380,-210.6667 1385.6667,-205 1391.3333,-205"/>
</g>
<!-- search_hash1&#45;&gt;matching -->
<g id="edge20" class="edge transition">
<title>search_hash1&#45;&gt;matching</title>
<path fill="none" stroke="#000000" d="M1259.1645,-285.8015C1291.9933,-272.2741 1336.6059,-253.891 1369.5117,-240.3318"/>
<polygon fill="#000000" stroke="#000000" points="1370.9792,-243.5127 1378.8916,-236.4668 1368.3123,-237.0406 1370.9792,-243.5127"/>
<text text-anchor="middle" x="1328.3895" y="-260" font-family="Helvetica,sans-Serif" font-size="10.00" fill="#000000"> </text>
</g>
<!-- search_hash2 -->
<g id="node13" class="node state regular">
<title>search_hash2</title>
<polygon fill="#ffffff" fill-opacity="0.003922" stroke="transparent" stroke-width="2" points="1542.5,-146 1445.5,-146 1445.5,-110 1542.5,-110 1542.5,-146"/>
<text text-anchor="start" x="1456.8194" y="-124.2" font-family="Helvetica,sans-Serif" font-size="12.00" fill="#000000">search_hash2</text>
<path fill="none" stroke="#000000" stroke-width="2" d="M1457.8333,-111C1457.8333,-111 1530.1667,-111 1530.1667,-111 1535.8333,-111 1541.5,-116.6667 1541.5,-122.3333 1541.5,-122.3333 1541.5,-133.6667 1541.5,-133.6667 1541.5,-139.3333 1535.8333,-145 1530.1667,-145 1530.1667,-145 1457.8333,-145 1457.8333,-145 1452.1667,-145 1446.5,-139.3333 1446.5,-133.6667 1446.5,-133.6667 1446.5,-122.3333 1446.5,-122.3333 1446.5,-116.6667 1452.1667,-111 1457.8333,-111"/>
</g>
<!-- search_hash2&#45;&gt;matching -->
<g id="edge21" class="edge transition">
<title>search_hash2&#45;&gt;matching</title>
<path fill="none" stroke="#000000" d="M1478.6225,-146.0685C1466.5719,-160.228 1449.6416,-180.1211 1436.133,-195.9937"/>
<polygon fill="#000000" stroke="#000000" points="1433.2406,-193.992 1429.4248,-203.8759 1438.5714,-198.5289 1433.2406,-193.992"/>
<text text-anchor="middle" x="1464.3895" y="-172" font-family="Helvetica,sans-Serif" font-size="10.00" fill="#000000"> </text>
</g>
<!-- matching&#45;&gt;search_hash2 -->
<g id="edge22" class="edge transition">
<title>matching&#45;&gt;search_hash2</title>
<path fill="none" stroke="#000000" d="M1449.0381,-205.4147C1457.0492,-200.3735 1464.9699,-194.2189 1471,-187 1478.4775,-178.0484 1483.7075,-166.3831 1487.2686,-155.7908"/>
<polygon fill="#000000" stroke="#000000" points="1490.6584,-156.6722 1490.1903,-146.0877 1483.9556,-154.6538 1490.6584,-156.6722"/>
<text text-anchor="start" x="1484" y="-172" font-family="Helvetica,sans-Serif" font-size="10.00" fill="#000000">previous_search_next = &#39;0&#39; and exits_matching_next = &#39;0&#39; &#160;&#160;</text>
</g>
<!-- AD_communication -->
<g id="node15" class="node state regular">
<title>AD_communication</title>
<polygon fill="#ffffff" fill-opacity="0.003922" stroke="transparent" stroke-width="2" points="1198,-146 1072,-146 1072,-110 1198,-110 1198,-146"/>
<text text-anchor="start" x="1082.9944" y="-124.2" font-family="Helvetica,sans-Serif" font-size="12.00" fill="#000000">AD_communication</text>
<path fill="none" stroke="#000000" stroke-width="2" d="M1084.3333,-111C1084.3333,-111 1185.6667,-111 1185.6667,-111 1191.3333,-111 1197,-116.6667 1197,-122.3333 1197,-122.3333 1197,-133.6667 1197,-133.6667 1197,-139.3333 1191.3333,-145 1185.6667,-145 1185.6667,-145 1084.3333,-145 1084.3333,-145 1078.6667,-145 1073,-139.3333 1073,-133.6667 1073,-133.6667 1073,-122.3333 1073,-122.3333 1073,-116.6667 1078.6667,-111 1084.3333,-111"/>
</g>
<!-- matching&#45;&gt;AD_communication -->
<g id="edge23" class="edge transition">
<title>matching&#45;&gt;AD_communication</title>
<path fill="none" stroke="#000000" d="M1378.7893,-220.5594C1319.918,-217.5612 1204.6593,-208.9962 1171.213,-187 1159.8377,-179.519 1151.4388,-167.1059 1145.6095,-155.5906"/>
<polygon fill="#000000" stroke="#000000" points="1148.6723,-153.8741 1141.3084,-146.2568 1142.3149,-156.8037 1148.6723,-153.8741"/>
<text text-anchor="start" x="1171" y="-172" font-family="Helvetica,sans-Serif" font-size="10.00" fill="#000000">(exits_matching_next = &#39;1&#39;) or (previous_search_next = &#39;1&#39;) &#160;&#160;</text>
</g>
<!-- AD_communication&#45;&gt;rdy_hash_matching -->
<g id="edge24" class="edge transition">
<title>AD_communication&#45;&gt;rdy_hash_matching</title>
<path fill="none" stroke="#000000" d="M1121.9482,-146.3052C1117.2109,-154.6521 1113,-164.9095 1113,-175 1113,-345 1113,-345 1113,-345 1113,-349.0532 1112.9013,-353.3291 1112.7477,-357.5288"/>
<polygon fill="#000000" stroke="#000000" points="1109.2459,-357.4889 1112.278,-367.6406 1116.2383,-357.8138 1109.2459,-357.4889"/>
<text text-anchor="start" x="1113" y="-260" font-family="Helvetica,sans-Serif" font-size="10.00" fill="#000000">rdy_ad_hash = &#39;1&#39; &#160;&#160;</text>
</g>
<!-- rdy_delete&#45;&gt;command_state -->
<g id="edge25" class="edge transition">
<title>rdy_delete&#45;&gt;command_state</title>
<path fill="none" stroke="#000000" d="M774.1701,-401.9341C789.1418,-410.3366 800.5695,-421.314 791,-433 777.0542,-450.0303 724.4796,-458.953 680.7365,-463.5133"/>
<polygon fill="#000000" stroke="#000000" points="680.3067,-460.0386 670.6976,-464.5013 680.9924,-467.0049 680.3067,-460.0386"/>
<text text-anchor="start" x="794" y="-424" font-family="Helvetica,sans-Serif" font-size="10.00" fill="#000000">delete_flag_next = &#39;0&#39; &#160;&#160;</text>
</g>
<!-- find_hashfun1 -->
<g id="node17" class="node state regular">
<title>find_hashfun1</title>
<polygon fill="#ffffff" fill-opacity="0.003922" stroke="transparent" stroke-width="2" points="809.5,-322 712.5,-322 712.5,-286 809.5,-286 809.5,-322"/>
<text text-anchor="start" x="723.8152" y="-300.2" font-family="Helvetica,sans-Serif" font-size="12.00" fill="#000000">find_hashfun1</text>
<path fill="none" stroke="#000000" stroke-width="2" d="M724.8333,-287C724.8333,-287 797.1667,-287 797.1667,-287 802.8333,-287 808.5,-292.6667 808.5,-298.3333 808.5,-298.3333 808.5,-309.6667 808.5,-309.6667 808.5,-315.3333 802.8333,-321 797.1667,-321 797.1667,-321 724.8333,-321 724.8333,-321 719.1667,-321 713.5,-315.3333 713.5,-309.6667 713.5,-309.6667 713.5,-298.3333 713.5,-298.3333 713.5,-292.6667 719.1667,-287 724.8333,-287"/>
</g>
<!-- rdy_delete&#45;&gt;find_hashfun1 -->
<g id="edge26" class="edge transition">
<title>rdy_delete&#45;&gt;find_hashfun1</title>
<path fill="none" stroke="#000000" d="M740.7702,-367.8015C744.1027,-357.2915 748.3645,-343.8503 752.1163,-332.0177"/>
<polygon fill="#000000" stroke="#000000" points="755.5597,-332.7378 755.2459,-322.1476 748.8871,-330.622 755.5597,-332.7378"/>
<text text-anchor="start" x="749" y="-342" font-family="Helvetica,sans-Serif" font-size="10.00" fill="#000000">vld_firewall_hash = &#39;1&#39; &#160;&#160;</text>
</g>
<!-- match_for_delete -->
<g id="node19" class="node state regular">
<title>match_for_delete</title>
<polygon fill="#ffffff" fill-opacity="0.003922" stroke="transparent" stroke-width="2" points="826,-240 712,-240 712,-204 826,-204 826,-240"/>
<text text-anchor="start" x="722.653" y="-218.2" font-family="Helvetica,sans-Serif" font-size="12.00" fill="#000000">match_for_delete</text>
<path fill="none" stroke="#000000" stroke-width="2" d="M724.3333,-205C724.3333,-205 813.6667,-205 813.6667,-205 819.3333,-205 825,-210.6667 825,-216.3333 825,-216.3333 825,-227.6667 825,-227.6667 825,-233.3333 819.3333,-239 813.6667,-239 813.6667,-239 724.3333,-239 724.3333,-239 718.6667,-239 713,-233.3333 713,-227.6667 713,-227.6667 713,-216.3333 713,-216.3333 713,-210.6667 718.6667,-205 724.3333,-205"/>
</g>
<!-- find_hashfun1&#45;&gt;match_for_delete -->
<g id="edge27" class="edge transition">
<title>find_hashfun1&#45;&gt;match_for_delete</title>
<path fill="none" stroke="#000000" d="M762.7755,-285.8015C763.7905,-275.3976 765.0857,-262.1215 766.2315,-250.3768"/>
<polygon fill="#000000" stroke="#000000" points="769.7419,-250.4402 767.2295,-240.1476 762.775,-249.7605 769.7419,-250.4402"/>
<text text-anchor="middle" x="766.3895" y="-260" font-family="Helvetica,sans-Serif" font-size="10.00" fill="#000000"> </text>
</g>
<!-- find_hashfun2 -->
<g id="node18" class="node state regular">
<title>find_hashfun2</title>
<polygon fill="#ffffff" fill-opacity="0.003922" stroke="transparent" stroke-width="2" points="928.5,-146 831.5,-146 831.5,-110 928.5,-110 928.5,-146"/>
<text text-anchor="start" x="842.8152" y="-124.2" font-family="Helvetica,sans-Serif" font-size="12.00" fill="#000000">find_hashfun2</text>
<path fill="none" stroke="#000000" stroke-width="2" d="M843.8333,-111C843.8333,-111 916.1667,-111 916.1667,-111 921.8333,-111 927.5,-116.6667 927.5,-122.3333 927.5,-122.3333 927.5,-133.6667 927.5,-133.6667 927.5,-139.3333 921.8333,-145 916.1667,-145 916.1667,-145 843.8333,-145 843.8333,-145 838.1667,-145 832.5,-139.3333 832.5,-133.6667 832.5,-133.6667 832.5,-122.3333 832.5,-122.3333 832.5,-116.6667 838.1667,-111 843.8333,-111"/>
</g>
<!-- find_hashfun2&#45;&gt;match_for_delete -->
<g id="edge28" class="edge transition">
<title>find_hashfun2&#45;&gt;match_for_delete</title>
<path fill="none" stroke="#000000" d="M928.9011,-131.4725C973.0192,-135.7439 1033.1981,-144.7966 1048,-163 1054.7295,-171.276 1055.0575,-179.0019 1048,-187 1034.2058,-202.6328 914.5839,-212.9873 836.5155,-218.1467"/>
<polygon fill="#000000" stroke="#000000" points="836.0178,-214.6715 826.2648,-218.8102 836.47,-221.6569 836.0178,-214.6715"/>
<text text-anchor="middle" x="1054.3895" y="-172" font-family="Helvetica,sans-Serif" font-size="10.00" fill="#000000"> </text>
</g>
<!-- match_for_delete&#45;&gt;find_hashfun2 -->
<g id="edge29" class="edge transition">
<title>match_for_delete&#45;&gt;find_hashfun2</title>
<path fill="none" stroke="#000000" d="M768.1324,-203.9877C768.4772,-191.1342 771.027,-174.2069 780.74,-163 786.7481,-156.0679 803.3124,-149.1894 821.2283,-143.3889"/>
<polygon fill="#000000" stroke="#000000" points="822.7438,-146.5837 831.2621,-140.2838 820.6744,-139.8966 822.7438,-146.5837"/>
<text text-anchor="start" x="780" y="-172" font-family="Helvetica,sans-Serif" font-size="10.00" fill="#000000">previous_search_next = &#39;0&#39; and exits_matching_next = &#39;0&#39; &#160;&#160;</text>
</g>
<!-- delete_from_memory -->
<g id="node20" class="node state regular">
<title>delete_from_memory</title>
<polygon fill="#ffffff" fill-opacity="0.003922" stroke="transparent" stroke-width="2" points="513.5,-146 378.5,-146 378.5,-110 513.5,-110 513.5,-146"/>
<text text-anchor="start" x="389.8282" y="-124.2" font-family="Helvetica,sans-Serif" font-size="12.00" fill="#000000">delete_from_memory</text>
<path fill="none" stroke="#000000" stroke-width="2" d="M390.8333,-111C390.8333,-111 501.1667,-111 501.1667,-111 506.8333,-111 512.5,-116.6667 512.5,-122.3333 512.5,-122.3333 512.5,-133.6667 512.5,-133.6667 512.5,-139.3333 506.8333,-145 501.1667,-145 501.1667,-145 390.8333,-145 390.8333,-145 385.1667,-145 379.5,-139.3333 379.5,-133.6667 379.5,-133.6667 379.5,-122.3333 379.5,-122.3333 379.5,-116.6667 385.1667,-111 390.8333,-111"/>
</g>
<!-- match_for_delete&#45;&gt;delete_from_memory -->
<g id="edge30" class="edge transition">
<title>match_for_delete&#45;&gt;delete_from_memory</title>
<path fill="none" stroke="#000000" d="M711.7655,-219.3937C643.2469,-215.4567 533.2221,-206.2996 497.213,-187 483.1679,-179.4723 471.2281,-166.4279 462.4192,-154.5156"/>
<polygon fill="#000000" stroke="#000000" points="465.1656,-152.3351 456.573,-146.1368 459.4249,-156.3406 465.1656,-152.3351"/>
<text text-anchor="start" x="497" y="-172" font-family="Helvetica,sans-Serif" font-size="10.00" fill="#000000">(exits_matching_next = &#39;1&#39;) or (previous_search_next = &#39;1&#39;) &#160;&#160;</text>
</g>
<!-- delete_from_memory&#45;&gt;rdy_delete -->
<g id="edge31" class="edge transition">
<title>delete_from_memory&#45;&gt;rdy_delete</title>
<path fill="none" stroke="#000000" d="M446.2024,-146.4121C446.4946,-174.6279 447,-230.2611 447,-277.5 447,-345 447,-345 447,-345 447,-368.8228 603.4462,-379.8011 685.727,-383.9276"/>
<polygon fill="#000000" stroke="#000000" points="685.7012,-387.4304 695.8593,-384.42 686.041,-380.4387 685.7012,-387.4304"/>
<text text-anchor="middle" x="447.3895" y="-260" font-family="Helvetica,sans-Serif" font-size="10.00" fill="#000000"> </text>
</g>
</g>
</svg>
